<?xml version="1.0" encoding="utf-8"?>
<!-- Generator: Adobe Illustrator 25.0.0, SVG Export Plug-In . SVG Version: 6.00 Build 0)  -->
<svg version="1.1" xmlns="http://www.w3.org/2000/svg" xmlns:xlink="http://www.w3.org/1999/xlink" x="0px" y="0px"
	 viewBox="0 0 361 361" style="enable-background:new 0 0 361 361;" xml:space="preserve">
<style type="text/css">
	.st0{fill:none;stroke:#0C322C;stroke-width:17;stroke-miterlimit:10;}
	.st1{fill:none;stroke:#FE7C3F;stroke-width:17;stroke-miterlimit:10;}
</style>
<g id="Layer_1">
	<path class="st0" d="M252.69,250.5"/>
	<g>
		<path class="st1" d="M243.5,171.5v-25.07h-19.87c-2.37-9.2-6.02-17.89-10.73-25.87l14.06-14.06L191.5,71.04L177.44,85.1
			c-7.98-4.72-16.67-8.36-25.87-10.73V54.5h-50.14v19.87c-9.2,2.37-17.89,6.02-25.87,10.73L61.5,71.04L26.04,106.5l14.06,14.06
			c-4.72,7.98-8.36,16.67-10.73,25.87H9.5v50.14h19.87c2.37,9.2,6.02,17.89,10.73,25.87L26.04,236.5l35.46,35.46l14.06-14.06
			c7.98,4.72,16.67,8.36,25.87,10.73v19.87h25.07"/>
		<path class="st1" d="M126.5,221.64c-27.69,0-50.14-22.45-50.14-50.14s22.45-50.14,50.14-50.14s50.14,22.45,50.14,50.14"/>
	</g>
	<line class="st0" x1="144.5" y1="198.5" x2="351.5" y2="198.5"/>
	<line class="st0" x1="144.5" y1="234.5" x2="315.5" y2="234.5"/>
	<line class="st0" x1="144.5" y1="270.5" x2="270.5" y2="270.5"/>
	<line class="st0" x1="144.5" y1="306.5" x2="225.5" y2="306.5"/>
</g>
<g id="Outlines">
</g>
</svg>
