<?xml version="1.0" encoding="UTF-8"?> <!-- Generator: Adobe Illustrator 25.0.0, SVG Export Plug-In . SVG Version: 6.00 Build 0) --> <svg xmlns="http://www.w3.org/2000/svg" xmlns:xlink="http://www.w3.org/1999/xlink" version="1.1" id="Layer_1" x="0px" y="0px" viewBox="0 0 400 245" style="enable-background:new 0 0 400 245;" xml:space="preserve"> <style type="text/css"> .st0{fill:url(#SVGID_1_);} .st1{fill:url(#SVGID_2_);} .st2{fill:url(#SVGID_3_);} .st3{fill:url(#SVGID_4_);} .st4{fill:url(#SVGID_5_);} .st5{fill:url(#SVGID_6_);} .st6{fill:url(#SVGID_7_);} .st7{fill:url(#SVGID_8_);} .st8{fill:url(#SVGID_9_);} .st9{fill:url(#SVGID_10_);} .st10{fill:url(#SVGID_11_);} .st11{fill:url(#SVGID_12_);} .st12{fill:url(#SVGID_13_);} .st13{fill:url(#SVGID_14_);} .st14{fill:url(#SVGID_15_);} .st15{fill:url(#SVGID_16_);} .st16{fill:url(#SVGID_17_);} .st17{fill:url(#SVGID_18_);} .st18{fill:url(#SVGID_19_);} .st19{fill:url(#SVGID_20_);} .st20{fill:url(#SVGID_21_);} .st21{fill:url(#SVGID_22_);} .st22{fill:url(#SVGID_23_);} .st23{fill:url(#SVGID_24_);} .st24{fill:url(#SVGID_25_);} .st25{fill:url(#SVGID_26_);} .st26{fill:url(#SVGID_27_);} .st27{fill:url(#SVGID_28_);} .st28{fill:url(#SVGID_29_);} .st29{fill:url(#SVGID_30_);} .st30{fill:url(#SVGID_31_);} .st31{fill:url(#SVGID_32_);} .st32{fill:url(#SVGID_33_);} .st33{fill:url(#SVGID_34_);} .st34{fill:url(#SVGID_35_);} .st35{fill:url(#SVGID_36_);} .st36{fill:url(#SVGID_37_);} .st37{fill:url(#SVGID_38_);} .st38{fill:url(#SVGID_39_);} </style> <g> <g> <linearGradient id="SVGID_1_" gradientUnits="userSpaceOnUse" x1="-6.9152" y1="52.4919" x2="420.1913" y2="52.4919" gradientTransform="matrix(1 0 0 -1 0 245)"> <stop offset="0" style="stop-color:#00A1BF"></stop> <stop offset="1" style="stop-color:#12102F"></stop> </linearGradient> <path class="st0" d="M8.5,193.1H3v5.9h6.5v1.7H0.7v-16.3h8.8v1.8H3v5.3h5.5L8.5,193.1L8.5,193.1z"></path> <linearGradient id="SVGID_2_" gradientUnits="userSpaceOnUse" x1="-6.9152" y1="52.4719" x2="420.1913" y2="52.4719" gradientTransform="matrix(1 0 0 -1 0 245)"> <stop offset="0" style="stop-color:#00A1BF"></stop> <stop offset="1" style="stop-color:#12102F"></stop> </linearGradient> <path class="st1" d="M22.8,200.7h-2.3l-6.3-12.1l-0.1,0v12h-2.3v-16.4H14l6.3,12h0.1v-12h2.3V200.7z"></path> <linearGradient id="SVGID_3_" gradientUnits="userSpaceOnUse" x1="-6.9152" y1="52.4719" x2="420.1913" y2="52.4719" gradientTransform="matrix(1 0 0 -1 0 245)"> <stop offset="0" style="stop-color:#00A1BF"></stop> <stop offset="1" style="stop-color:#12102F"></stop> </linearGradient> <path class="st2" d="M33.3,196.6h-4.9l-1.2,4.1h-2.4l4.9-16.4h2.2l4.9,16.4h-2.4L33.3,196.6z M29,194.7h3.9l-1.9-6.7h-0.1 L29,194.7z"></path> <linearGradient id="SVGID_4_" gradientUnits="userSpaceOnUse" x1="-6.9152" y1="52.4719" x2="420.1913" y2="52.4719" gradientTransform="matrix(1 0 0 -1 0 245)"> <stop offset="0" style="stop-color:#00A1BF"></stop> <stop offset="1" style="stop-color:#12102F"></stop> </linearGradient> <path class="st3" d="M38.8,200.7v-16.4h4.5c1.6,0,2.8,0.4,3.7,1.1c0.9,0.7,1.3,1.8,1.3,3.3c0,0.8-0.2,1.4-0.6,2 c-0.4,0.6-0.9,1-1.6,1.3c1,0.2,1.7,0.6,2.2,1.4c0.5,0.8,0.8,1.6,0.8,2.6c0,1.5-0.4,2.7-1.3,3.4c-0.9,0.8-2.1,1.2-3.6,1.2 L38.8,200.7L38.8,200.7z M41.1,191.4h2.6c0.7,0,1.3-0.3,1.7-0.7c0.4-0.4,0.6-1.1,0.6-1.9c0-0.9-0.2-1.6-0.7-2 c-0.4-0.4-1.1-0.7-2-0.7h-2.2L41.1,191.4L41.1,191.4z M41.1,193.1v5.9h3.1c0.8,0,1.5-0.2,1.9-0.8c0.4-0.5,0.7-1.2,0.7-2.2 c0-0.9-0.2-1.6-0.6-2.2c-0.4-0.6-1-0.8-1.8-0.8h-0.1H41.1z"></path> <linearGradient id="SVGID_5_" gradientUnits="userSpaceOnUse" x1="-6.9152" y1="52.4919" x2="420.1913" y2="52.4919" gradientTransform="matrix(1 0 0 -1 0 245)"> <stop offset="0" style="stop-color:#00A1BF"></stop> <stop offset="1" style="stop-color:#12102F"></stop> </linearGradient> <path class="st4" d="M53.8,199h6.6v1.7h-8.9v-16.3h2.3V199z"></path> <linearGradient id="SVGID_6_" gradientUnits="userSpaceOnUse" x1="-6.9152" y1="52.4719" x2="420.1913" y2="52.4719" gradientTransform="matrix(1 0 0 -1 0 245)"> <stop offset="0" style="stop-color:#00A1BF"></stop> <stop offset="1" style="stop-color:#12102F"></stop> </linearGradient> <path class="st5" d="M65.1,200.7h-2.3v-16.4h2.3V200.7z"></path> <linearGradient id="SVGID_7_" gradientUnits="userSpaceOnUse" x1="-6.9152" y1="52.4719" x2="420.1913" y2="52.4719" gradientTransform="matrix(1 0 0 -1 0 245)"> <stop offset="0" style="stop-color:#00A1BF"></stop> <stop offset="1" style="stop-color:#12102F"></stop> </linearGradient> <path class="st6" d="M79.4,200.7h-2.3l-6.3-12.1l-0.1,0v12h-2.3v-16.4h2.3l6.3,12h0.1v-12h2.3V200.7z"></path> <linearGradient id="SVGID_8_" gradientUnits="userSpaceOnUse" x1="-6.9152" y1="52.5118" x2="420.1913" y2="52.5118" gradientTransform="matrix(1 0 0 -1 0 245)"> <stop offset="0" style="stop-color:#00A1BF"></stop> <stop offset="1" style="stop-color:#12102F"></stop> </linearGradient> <path class="st7" d="M93,198.6c-0.4,0.6-1,1.2-1.9,1.6c-0.8,0.5-2,0.7-3.3,0.7c-1.7,0-3.1-0.5-4.1-1.6c-1.1-1-1.6-2.5-1.6-4.5V190 c0-1.9,0.5-3.3,1.5-4.4c1-1,2.4-1.6,4-1.6c1.7,0,3,0.4,3.8,1.3c0.9,0.8,1.3,2,1.3,3.5l0,0.1h-2.2c0-1-0.2-1.8-0.8-2.3 c-0.5-0.6-1.2-0.8-2.2-0.8c-1,0-1.8,0.4-2.4,1.1c-0.6,0.7-0.9,1.8-0.9,3.1v4.9c0,1.4,0.3,2.5,0.9,3.2s1.4,1.1,2.5,1.1 c0.8,0,1.4-0.1,1.8-0.4c0.5-0.2,0.8-0.5,1-0.9v-3.8h-3v-1.7h5.3v6.1H93z"></path> <linearGradient id="SVGID_9_" gradientUnits="userSpaceOnUse" x1="-6.9152" y1="52.4919" x2="420.1913" y2="52.4919" gradientTransform="matrix(1 0 0 -1 0 245)"> <stop offset="0" style="stop-color:#00A1BF"></stop> <stop offset="1" style="stop-color:#12102F"></stop> </linearGradient> <path class="st8" d="M103.3,199h6.6v1.7h-8.9v-16.3h2.3V199z"></path> <linearGradient id="SVGID_10_" gradientUnits="userSpaceOnUse" x1="-6.9152" y1="52.4719" x2="420.1913" y2="52.4719" gradientTransform="matrix(1 0 0 -1 0 245)"> <stop offset="0" style="stop-color:#00A1BF"></stop> <stop offset="1" style="stop-color:#12102F"></stop> </linearGradient> <path class="st9" d="M114.6,200.7h-2.3v-16.4h2.3V200.7z"></path> <linearGradient id="SVGID_11_" gradientUnits="userSpaceOnUse" x1="-6.9152" y1="52.4719" x2="420.1913" y2="52.4719" gradientTransform="matrix(1 0 0 -1 0 245)"> <stop offset="0" style="stop-color:#00A1BF"></stop> <stop offset="1" style="stop-color:#12102F"></stop> </linearGradient> <path class="st10" d="M128.9,200.7h-2.3l-6.3-12.1l-0.1,0v12H118v-16.4h2.3l6.3,12h0.1v-12h2.3L128.9,200.7L128.9,200.7z"></path> <linearGradient id="SVGID_12_" gradientUnits="userSpaceOnUse" x1="-6.9152" y1="52.3523" x2="420.1913" y2="52.3523" gradientTransform="matrix(1 0 0 -1 0 245)"> <stop offset="0" style="stop-color:#00A1BF"></stop> <stop offset="1" style="stop-color:#12102F"></stop> </linearGradient> <path class="st11" d="M142.8,184.3v10.8c0,1.8-0.5,3.2-1.5,4.3c-1,1-2.4,1.5-4,1.5c-1.6,0-2.9-0.5-3.9-1.5c-1-1-1.5-2.4-1.5-4.2 v-10.9h2.3v10.8c0,1.3,0.3,2.3,0.9,3c0.6,0.7,1.3,1.1,2.3,1.1c1,0,1.7-0.4,2.3-1.1c0.6-0.7,0.9-1.7,0.9-3v-10.8H142.8z"></path> <linearGradient id="SVGID_13_" gradientUnits="userSpaceOnUse" x1="-6.9152" y1="52.4919" x2="420.1913" y2="52.4919" gradientTransform="matrix(1 0 0 -1 0 245)"> <stop offset="0" style="stop-color:#00A1BF"></stop> <stop offset="1" style="stop-color:#12102F"></stop> </linearGradient> <path class="st12" d="M150.4,190.7L150.4,190.7l3.1-6.4h2.7l-4.3,8.1l4.5,8.3h-2.8l-3.1-6.5h-0.1l-3.1,6.5h-2.7l4.5-8.3l-4.3-8.1 h2.7L150.4,190.7z"></path> <linearGradient id="SVGID_14_" gradientUnits="userSpaceOnUse" x1="-6.9152" y1="52.4719" x2="420.1913" y2="52.4719" gradientTransform="matrix(1 0 0 -1 0 245)"> <stop offset="0" style="stop-color:#00A1BF"></stop> <stop offset="1" style="stop-color:#12102F"></stop> </linearGradient> <path class="st13" d="M165.9,200.7h-2.3v-16.4h2.3V200.7z"></path> <linearGradient id="SVGID_15_" gradientUnits="userSpaceOnUse" x1="-6.9152" y1="52.4719" x2="420.1913" y2="52.4719" gradientTransform="matrix(1 0 0 -1 0 245)"> <stop offset="0" style="stop-color:#00A1BF"></stop> <stop offset="1" style="stop-color:#12102F"></stop> </linearGradient> <path class="st14" d="M180.2,200.7h-2.3l-6.3-12.1l-0.1,0v12h-2.3v-16.4h2.3l6.3,12h0.1v-12h2.3V200.7z"></path> <linearGradient id="SVGID_16_" gradientUnits="userSpaceOnUse" x1="-6.9152" y1="52.452" x2="420.1913" y2="52.452" gradientTransform="matrix(1 0 0 -1 0 245)"> <stop offset="0" style="stop-color:#00A1BF"></stop> <stop offset="1" style="stop-color:#12102F"></stop> </linearGradient> <path class="st15" d="M195.9,196.6c0-0.8-0.2-1.4-0.6-1.8c-0.4-0.5-1.2-0.9-2.3-1.3c-1.6-0.5-2.7-1.1-3.5-1.9 c-0.8-0.8-1.2-1.8-1.2-3c0-1.3,0.4-2.4,1.4-3.2c0.9-0.8,2.1-1.2,3.5-1.2c1.5,0,2.7,0.5,3.6,1.4s1.4,2.1,1.3,3.5l0,0.1h-2.2 c0-1-0.2-1.8-0.8-2.3c-0.5-0.6-1.2-0.9-2-0.9c-0.8,0-1.4,0.2-1.9,0.8s-0.7,1.2-0.7,1.9c0,0.7,0.2,1.3,0.7,1.8 c0.5,0.5,1.3,0.9,2.4,1.3c1.5,0.5,2.6,1.1,3.4,1.9c0.8,0.8,1.2,1.8,1.2,3.1c0,1.3-0.5,2.4-1.4,3.2c-0.9,0.8-2.1,1.2-3.6,1.2 c-1.4,0-2.7-0.4-3.7-1.3c-1.1-0.8-1.6-2.1-1.6-3.7l0-0.1h2.2c0,1.1,0.3,2,0.9,2.5s1.3,0.8,2.2,0.8c0.8,0,1.5-0.2,2-0.7 C195.6,198,195.9,197.4,195.9,196.6z"></path> <linearGradient id="SVGID_17_" gradientUnits="userSpaceOnUse" x1="-6.9152" y1="52.4719" x2="420.1913" y2="52.4719" gradientTransform="matrix(1 0 0 -1 0 245)"> <stop offset="0" style="stop-color:#00A1BF"></stop> <stop offset="1" style="stop-color:#12102F"></stop> </linearGradient> <path class="st16" d="M208,196.6H203l-1.2,4.1h-2.4l4.9-16.4h2.2l4.9,16.4h-2.4L208,196.6z M203.6,194.7h3.9l-1.9-6.7h-0.1 L203.6,194.7z"></path> <linearGradient id="SVGID_18_" gradientUnits="userSpaceOnUse" x1="-6.9152" y1="52.4919" x2="420.1913" y2="52.4919" gradientTransform="matrix(1 0 0 -1 0 245)"> <stop offset="0" style="stop-color:#00A1BF"></stop> <stop offset="1" style="stop-color:#12102F"></stop> </linearGradient> <path class="st17" d="M221.4,193.4h-5.7v7.3h-2.3v-16.3h9v1.8h-6.7v5.6h5.7L221.4,193.4L221.4,193.4z"></path> <linearGradient id="SVGID_19_" gradientUnits="userSpaceOnUse" x1="-6.9152" y1="52.4919" x2="420.1913" y2="52.4919" gradientTransform="matrix(1 0 0 -1 0 245)"> <stop offset="0" style="stop-color:#00A1BF"></stop> <stop offset="1" style="stop-color:#12102F"></stop> </linearGradient> <path class="st18" d="M232.4,193.1h-5.5v5.9h6.5v1.7h-8.8v-16.3h8.8v1.8h-6.5v5.3h5.5L232.4,193.1L232.4,193.1z"></path> <linearGradient id="SVGID_20_" gradientUnits="userSpaceOnUse" x1="-6.9152" y1="52.4719" x2="420.1913" y2="52.4719" gradientTransform="matrix(1 0 0 -1 0 245)"> <stop offset="0" style="stop-color:#00A1BF"></stop> <stop offset="1" style="stop-color:#12102F"></stop> </linearGradient> <path class="st19" d="M245.4,186.1h-4.3v14.6h-2.3v-14.6h-4.3v-1.8h10.9L245.4,186.1L245.4,186.1z"></path> <linearGradient id="SVGID_21_" gradientUnits="userSpaceOnUse" x1="-6.9152" y1="52.4719" x2="420.1913" y2="52.4719" gradientTransform="matrix(1 0 0 -1 0 245)"> <stop offset="0" style="stop-color:#00A1BF"></stop> <stop offset="1" style="stop-color:#12102F"></stop> </linearGradient> <path class="st20" d="M252.3,192.3L252.3,192.3l3.5-8h2.6l-4.9,10.5v5.9h-2.3v-6.1l-4.9-10.3h2.6L252.3,192.3z"></path> <linearGradient id="SVGID_22_" gradientUnits="userSpaceOnUse" x1="-6.9152" y1="52.4719" x2="420.1913" y2="52.4719" gradientTransform="matrix(1 0 0 -1 0 245)"> <stop offset="0" style="stop-color:#00A1BF"></stop> <stop offset="1" style="stop-color:#12102F"></stop> </linearGradient> <path class="st21" d="M272.5,196.6h-4.9l-1.2,4.1h-2.4l4.9-16.4h2.2l4.9,16.4h-2.4L272.5,196.6z M268.2,194.7h3.9l-1.9-6.7h-0.1 L268.2,194.7z"></path> <linearGradient id="SVGID_23_" gradientUnits="userSpaceOnUse" x1="-6.9152" y1="52.4719" x2="420.1913" y2="52.4719" gradientTransform="matrix(1 0 0 -1 0 245)"> <stop offset="0" style="stop-color:#00A1BF"></stop> <stop offset="1" style="stop-color:#12102F"></stop> </linearGradient> <path class="st22" d="M280.2,194.3v6.5H278v-16.4h5.3c1.6,0,2.8,0.4,3.7,1.4c0.9,0.9,1.3,2.1,1.3,3.6c0,1.5-0.4,2.7-1.3,3.6 c-0.9,0.9-2.1,1.4-3.7,1.4L280.2,194.3L280.2,194.3z M280.2,192.5h3c0.9,0,1.6-0.3,2-0.9s0.7-1.4,0.7-2.3s-0.2-1.7-0.7-2.3 c-0.4-0.6-1.1-0.9-2-0.9h-3L280.2,192.5L280.2,192.5z"></path> <linearGradient id="SVGID_24_" gradientUnits="userSpaceOnUse" x1="-6.9152" y1="52.4719" x2="420.1913" y2="52.4719" gradientTransform="matrix(1 0 0 -1 0 245)"> <stop offset="0" style="stop-color:#00A1BF"></stop> <stop offset="1" style="stop-color:#12102F"></stop> </linearGradient> <path class="st23" d="M293,194.3v6.5h-2.3v-16.4h5.3c1.6,0,2.8,0.4,3.7,1.4c0.9,0.9,1.3,2.1,1.3,3.6c0,1.5-0.4,2.7-1.3,3.6 c-0.9,0.9-2.1,1.4-3.7,1.4L293,194.3L293,194.3z M293,192.5h3c0.9,0,1.6-0.3,2-0.9s0.7-1.4,0.7-2.3s-0.2-1.7-0.7-2.3 c-0.4-0.6-1.1-0.9-2-0.9h-3L293,192.5L293,192.5z"></path> <linearGradient id="SVGID_25_" gradientUnits="userSpaceOnUse" x1="-6.9152" y1="52.4919" x2="420.1913" y2="52.4919" gradientTransform="matrix(1 0 0 -1 0 245)"> <stop offset="0" style="stop-color:#00A1BF"></stop> <stop offset="1" style="stop-color:#12102F"></stop> </linearGradient> <path class="st24" d="M305.6,199h6.6v1.7h-8.9v-16.3h2.3V199z"></path> <linearGradient id="SVGID_26_" gradientUnits="userSpaceOnUse" x1="-6.9152" y1="52.4719" x2="420.1913" y2="52.4719" gradientTransform="matrix(1 0 0 -1 0 245)"> <stop offset="0" style="stop-color:#00A1BF"></stop> <stop offset="1" style="stop-color:#12102F"></stop> </linearGradient> <path class="st25" d="M317,200.7h-2.3v-16.4h2.3V200.7z"></path> <linearGradient id="SVGID_27_" gradientUnits="userSpaceOnUse" x1="-6.9152" y1="52.4719" x2="420.1913" y2="52.4719" gradientTransform="matrix(1 0 0 -1 0 245)"> <stop offset="0" style="stop-color:#00A1BF"></stop> <stop offset="1" style="stop-color:#12102F"></stop> </linearGradient> <path class="st26" d="M330.5,195.8L330.5,195.8c0.1,1.7-0.4,3-1.3,3.8c-0.9,0.9-2.2,1.4-3.8,1.4c-1.7,0-3-0.5-4-1.6 c-1-1.1-1.5-2.6-1.5-4.5v-4.5c0-2,0.5-3.4,1.5-4.5c1-1.1,2.3-1.6,3.9-1.6c1.7,0,3,0.4,3.9,1.3c0.9,0.9,1.4,2.1,1.4,3.8l0,0.1h-2.2 c0-1.2-0.2-2-0.8-2.6c-0.5-0.6-1.3-0.8-2.3-0.8c-1,0-1.8,0.4-2.3,1.1c-0.6,0.8-0.8,1.8-0.8,3.2v4.6c0,1.4,0.3,2.5,0.8,3.3 c0.6,0.8,1.4,1.1,2.4,1.1c1,0,1.7-0.3,2.2-0.8c0.5-0.6,0.8-1.4,0.8-2.6L330.5,195.8L330.5,195.8z"></path> <linearGradient id="SVGID_28_" gradientUnits="userSpaceOnUse" x1="-6.9152" y1="52.4719" x2="420.1913" y2="52.4719" gradientTransform="matrix(1 0 0 -1 0 245)"> <stop offset="0" style="stop-color:#00A1BF"></stop> <stop offset="1" style="stop-color:#12102F"></stop> </linearGradient> <path class="st27" d="M340.3,196.6h-4.9l-1.2,4.1h-2.4l4.9-16.4h2.2l4.9,16.4h-2.4L340.3,196.6z M335.9,194.7h3.9l-1.9-6.7h-0.1 L335.9,194.7z"></path> <linearGradient id="SVGID_29_" gradientUnits="userSpaceOnUse" x1="-6.9152" y1="52.4719" x2="420.1913" y2="52.4719" gradientTransform="matrix(1 0 0 -1 0 245)"> <stop offset="0" style="stop-color:#00A1BF"></stop> <stop offset="1" style="stop-color:#12102F"></stop> </linearGradient> <path class="st28" d="M354,186.1h-4.3v14.6h-2.3v-14.6h-4.3v-1.8H354L354,186.1L354,186.1z"></path> <linearGradient id="SVGID_30_" gradientUnits="userSpaceOnUse" x1="-6.9152" y1="52.4719" x2="420.1913" y2="52.4719" gradientTransform="matrix(1 0 0 -1 0 245)"> <stop offset="0" style="stop-color:#00A1BF"></stop> <stop offset="1" style="stop-color:#12102F"></stop> </linearGradient> <path class="st29" d="M358.5,200.7h-2.3v-16.4h2.3V200.7z"></path> <linearGradient id="SVGID_31_" gradientUnits="userSpaceOnUse" x1="-6.9152" y1="52.4719" x2="420.1913" y2="52.4719" gradientTransform="matrix(1 0 0 -1 0 245)"> <stop offset="0" style="stop-color:#00A1BF"></stop> <stop offset="1" style="stop-color:#12102F"></stop> </linearGradient> <path class="st30" d="M372.8,194.8c0,2-0.5,3.5-1.6,4.5c-1,1.1-2.5,1.6-4.2,1.6c-1.8,0-3.1-0.6-4.1-1.6c-1-1.1-1.6-2.6-1.6-4.5 v-4.5c0-1.9,0.5-3.4,1.6-4.5c1-1.1,2.4-1.6,4.1-1.6s3.1,0.6,4.2,1.6c1,1.1,1.6,2.6,1.6,4.5L372.8,194.8L372.8,194.8z M370.6,190.2 c0-1.4-0.3-2.5-0.9-3.2c-0.6-0.8-1.5-1.1-2.6-1.1c-1.1,0-2,0.4-2.5,1.1c-0.6,0.8-0.9,1.8-0.9,3.2v4.5c0,1.4,0.3,2.5,0.9,3.3 c0.6,0.8,1.4,1.1,2.5,1.1c1.1,0,2-0.4,2.6-1.1c0.6-0.8,0.9-1.8,0.9-3.3L370.6,190.2L370.6,190.2z"></path> <linearGradient id="SVGID_32_" gradientUnits="userSpaceOnUse" x1="-6.9152" y1="52.4719" x2="420.1913" y2="52.4719" gradientTransform="matrix(1 0 0 -1 0 245)"> <stop offset="0" style="stop-color:#00A1BF"></stop> <stop offset="1" style="stop-color:#12102F"></stop> </linearGradient> <path class="st31" d="M386.5,200.7h-2.3l-6.3-12.1l-0.1,0v12h-2.3v-16.4h2.3l6.3,12h0.1v-12h2.3L386.5,200.7L386.5,200.7z"></path> <linearGradient id="SVGID_33_" gradientUnits="userSpaceOnUse" x1="-6.9152" y1="52.452" x2="420.1913" y2="52.452" gradientTransform="matrix(1 0 0 -1 0 245)"> <stop offset="0" style="stop-color:#00A1BF"></stop> <stop offset="1" style="stop-color:#12102F"></stop> </linearGradient> <path class="st32" d="M397.1,196.6c0-0.8-0.2-1.4-0.6-1.8s-1.2-0.9-2.3-1.3c-1.6-0.5-2.7-1.1-3.5-1.9c-0.8-0.8-1.2-1.8-1.2-3 c0-1.3,0.4-2.4,1.4-3.2c0.9-0.8,2.1-1.2,3.5-1.2c1.5,0,2.7,0.5,3.6,1.4s1.4,2.1,1.3,3.5l0,0.1H397c0-1-0.2-1.8-0.8-2.3 c-0.5-0.6-1.2-0.9-2-0.9c-0.8,0-1.4,0.2-1.9,0.8c-0.4,0.5-0.7,1.2-0.7,1.9c0,0.7,0.2,1.3,0.7,1.8c0.5,0.5,1.3,0.9,2.4,1.3 c1.5,0.5,2.6,1.1,3.4,1.9c0.8,0.8,1.2,1.8,1.2,3.1c0,1.3-0.5,2.4-1.4,3.2c-0.9,0.8-2.1,1.2-3.6,1.2c-1.4,0-2.7-0.4-3.7-1.3 c-1.1-0.8-1.6-2.1-1.6-3.7l0-0.1h2.2c0,1.1,0.3,2,0.9,2.5c0.6,0.6,1.3,0.8,2.2,0.8c0.8,0,1.5-0.2,2-0.7 C396.8,198,397.1,197.4,397.1,196.6z"></path> </g> <g> <linearGradient id="SVGID_34_" gradientUnits="userSpaceOnUse" x1="-30.886" y1="136.7129" x2="456.1465" y2="136.7129" gradientTransform="matrix(1 0 0 -1 0 245)"> <stop offset="0" style="stop-color:#00A1BF"></stop> <stop offset="1" style="stop-color:#12102F"></stop> </linearGradient> <polygon class="st33" points="139.1,112.3 166.6,112.3 166.6,102.1 139.1,102.1 139.1,54.4 169.2,54.4 169.2,44.3 127.7,44.3 127.7,172.3 169.8,172.3 169.8,162.2 139.1,162.2 "></polygon> <linearGradient id="SVGID_35_" gradientUnits="userSpaceOnUse" x1="-30.886" y1="136.7129" x2="456.1465" y2="136.7129" gradientTransform="matrix(1 0 0 -1 0 245)"> <stop offset="0" style="stop-color:#00A1BF"></stop> <stop offset="1" style="stop-color:#12102F"></stop> </linearGradient> <polygon class="st34" points="198.8,44.3 187.5,44.3 187.5,172.3 228.4,172.3 228.4,162.2 198.8,162.2 "></polygon> <linearGradient id="SVGID_36_" gradientUnits="userSpaceOnUse" x1="-30.886" y1="136.7329" x2="456.1465" y2="136.7329" gradientTransform="matrix(1 0 0 -1 0 245)"> <stop offset="0" style="stop-color:#00A1BF"></stop> <stop offset="1" style="stop-color:#12102F"></stop> </linearGradient> <rect x="244.5" y="44.3" class="st35" width="11.4" height="127.9"></rect> <linearGradient id="SVGID_37_" gradientUnits="userSpaceOnUse" x1="-30.886" y1="136.693" x2="456.1465" y2="136.693" gradientTransform="matrix(1 0 0 -1 0 245)"> <stop offset="0" style="stop-color:#00A1BF"></stop> <stop offset="1" style="stop-color:#12102F"></stop> </linearGradient> <path class="st36" d="M318.1,44.3h-32.2c-2.7,0-4.9,0.8-6.6,2.6c-1.7,1.7-2.6,3.9-2.6,6.5v25.9c0,3.5,1.2,6.8,3.7,9.7l35.3,42.7 v30.5h-27.6v-31.5h-11.4v32.5c0,2.7,0.9,4.9,2.6,6.5c1.7,1.7,3.9,2.6,6.6,2.6h32.2c2.7,0,4.8-0.8,6.5-2.6c1.7-1.7,2.5-3.9,2.5-6.5 v-29.6c0-3.5-1.2-6.7-3.5-9.6l-35.5-42.7v-27h27.6v28.8h11.4V53.4c0-2.7-0.8-4.9-2.5-6.5C322.9,45.2,320.8,44.3,318.1,44.3z"></path> <linearGradient id="SVGID_38_" gradientUnits="userSpaceOnUse" x1="-30.886" y1="136.8923" x2="456.1465" y2="136.8923" gradientTransform="matrix(1 0 0 -1 0 245)"> <stop offset="0" style="stop-color:#00A1BF"></stop> <stop offset="1" style="stop-color:#12102F"></stop> </linearGradient> <path class="st37" d="M376.1,44h-11.2l-22.8,127.9v0.3h11l4.5-28.4H383l4.5,28.4h11.3L376.1,44z M359.1,133.7l11.3-69.3l11.2,69.3 H359.1z"></path> <linearGradient id="SVGID_39_" gradientUnits="userSpaceOnUse" x1="-55.4805" y1="136.6282" x2="696.137" y2="136.6282" gradientTransform="matrix(1 0 0 -1 0 245)"> <stop offset="0" style="stop-color:#00A1BF"></stop> <stop offset="1" style="stop-color:#12102F"></stop> </linearGradient> <path class="st38" d="M101.4,58.4l-46-13.4l-0.1,0c-0.8-0.2-1.6-0.2-2.4,0h0l-46,13.5c-3.4,0.9-5.8,4-5.8,7.5v65.6 c0,8.6,4.7,16.4,12.4,20.3l30.1,17.7l0.2,0.1c3.2,1.6,6.8,2.4,10.3,2.4c3.5,0,7.1-0.8,10.3-2.4l0.1,0l30.2-17.8 c7.7-3.9,12.4-11.7,12.4-20.3V65.9C107.2,62.3,104.8,59.3,101.4,58.4z M64.1,142.4H17.4V131h46.8L64.1,142.4L64.1,142.4z M64.1,112.8H17.4v-11.3h46.8L64.1,112.8L64.1,112.8z M64.1,83.3H17.4V72h46.8L64.1,83.3L64.1,83.3z M81.1,138.6l-3.8,3.8 l-3.8-3.8l-3.7-3.7l3.8-3.8l3.7,3.7L87,125l3.8,3.8L81.1,138.6z M81.1,109l-3.8,3.8l-3.8-3.8l-3.7-3.7l3.8-3.8l3.7,3.7l9.7-9.7 l3.8,3.8L81.1,109z M81.1,79.4l-3.8,3.8l-3.8-3.8l-3.7-3.7l3.8-3.8l3.7,3.7l9.7-9.7l3.8,3.8L81.1,79.4z"></path> </g> </g> </svg> 