<svg id="Layer_1" data-name="Layer 1" xmlns="http://www.w3.org/2000/svg" viewBox="0 0 136 111.4"><defs><style>.cls-1{fill:#ea3a3a;}.cls-2{fill:#fff;}</style></defs><title>hobbyfarm_logo</title><path class="cls-1" d="M121.6,111.4H14.4A14.47,14.47,0,0,1,0,97V14.4A14.47,14.47,0,0,1,14.4,0H121.6A14.47,14.47,0,0,1,136,14.4V97A14.47,14.47,0,0,1,121.6,111.4Z"/><path class="cls-2" d="M113.5,56.3,99.8,34.8l-2-3.4A13.79,13.79,0,0,0,93,26.6L75.2,16.1a14,14,0,0,0-14.4,0L43,26.7a13.79,13.79,0,0,0-4.8,4.8l-2,3.4L22.5,56.3A7.06,7.06,0,0,0,24.6,66a7.6,7.6,0,0,0,3.3,1.1V83.4a14,14,0,0,0,14,14H94.1a14,14,0,0,0,14-14V67a7.18,7.18,0,0,0,3.3-1.1A6.94,6.94,0,0,0,113.5,56.3Zm-19.4,27H41.9V52.5l6.2-10.2,2.3-3.7L68,28.1,85.6,38.6l2.3,3.7,6.2,10.2Z"/></svg>