<?xml version="1.0" encoding="UTF-8"?>
<!-- Generator: Adobe Illustrator 25.2.0, SVG Export Plug-In . SVG Version: 6.00 Build 0)  -->
<svg version="1.1" id="Layer_1" xmlns="http://www.w3.org/2000/svg" xmlns:xlink="http://www.w3.org/1999/xlink" x="0px" y="0px" viewBox="0 0 512.6282349 165" style="enable-background:new 0 0 512.6282349 165;" xml:space="preserve">
<style type="text/css">
	.st0{fill:#A453B9;}
	.st1{fill:#FFFFFF;}
	.st2{fill:#344845;}
	.st3{fill:#D13306;}
	.st4{fill:#004D93;}
	.st5{fill:#0081BE;}
	.st6{fill:#1167F1;}
	.st7{fill:#FFC400;}
	.st8{fill:#FF7A3D;}
	.st9{fill:#00A580;}
	.st10{fill:#53C3D0;}
	.st11{fill:#671C4C;}
	.st12{fill:#00E3C2;}
	.st13{fill:#BC2A46;}
	.st14{fill:#FF192E;}
	.st15{fill:#00B056;}
</style>
<g>
	<g>
		<path class="st3" d="M180,165H20c-11,0-20-9-20-20V20C0,9,9,0,20,0h160c11,0,20,9,20,20v125C200,156,191,165,180,165z"/>
		<g>
			<path class="st1" d="M100,20L45.873291,51.25v62.5L100,145l54.126709-31.25v-62.5L100,20z M139.126709,105.0898438     L100,127.6794434l-39.126709-22.5895996V59.9101562L100,37.3205566l39.126709,22.5895996V105.0898438z"/>
			<polygon class="st1" points="88.1938477,58.3632812 73.1938477,67.0234375 73.1938477,97.9765625 88.1938477,106.6367188      88.1938477,90 111.8061523,90 111.8061523,106.6367188 126.8061523,97.9765625 126.8061523,67.0234375 111.8061523,58.3632812      111.8061523,75 88.1938477,75    "/>
		</g>
	</g>
	<g>
		<path class="st2" d="M249.6838684,57.0761719h12.5244141v19.1240234h15.3740234V57.0761719H290.10672v50.6230469h-12.5244141    V86.25h-15.3740234v21.4492188h-12.5244141V57.0761719z"/>
		<path class="st2" d="M310.3576965,86.3251953l-16.2744141-29.2490234h14.1738281l6.6748047,12.375    c1.2753906,2.3994141,2.7001953,5.6240234,2.7001953,5.6240234h0.2998047c0,0,1.2753906-3.1494141,2.625-5.7744141    l6.375-12.2246094h11.5488281l-15.5986328,29.2490234v21.3740234h-12.5244141V86.3251953z"/>
		<path class="st2" d="M342.9065247,57.0761719h21.2236328c9.9746094,0,17.1748047,5.0253906,17.1748047,15.1494141    c0,11.0244141-6.9755859,17.3994141-17.1748047,17.3994141h-8.6992188v18.0742188h-12.5244141V57.0761719z     M355.4309387,66.1513672v14.3994141h5.8496094c3.8994141,0,7.4248047-2.1005859,7.4248047-7.5751953    c0-5.1748047-3.5253906-6.8242188-7.4248047-6.8242188H355.4309387z"/>
		<path class="st2" d="M387.006134,57.0761719h21.2236328c9.9746094,0,17.1748047,5.0253906,17.1748047,15.1494141    c0,11.0244141-6.9755859,17.3994141-17.1748047,17.3994141h-8.6992188v18.0742188H387.006134V57.0761719z M399.5305481,66.1513672    v14.3994141h5.8496094c3.8994141,0,7.4248047-2.1005859,7.4248047-7.5751953c0-5.1748047-3.5253906-6.8242188-7.4248047-6.8242188    H399.5305481z"/>
		<path class="st2" d="M431.1057434,57.0761719h33.5234375v9.2998047h-20.9990234V77.25h17.6240234v9.2998047h-17.6240234    v11.8496094h21.7490234v9.2998047h-34.2734375V57.0761719z"/>
		<path class="st2" d="M471.9055481,57.0761719h20.8486328c9.8994141,0,16.5742188,4.7998047,16.5742188,14.0996094    c0,7.5742188-5.1748047,12.1494141-10.1992188,13.7246094c1.5,1.2744141,2.625,3,3.5244141,4.7998047    c2.1005859,4.2744141,3.5253906,8.9990234,7.9501953,8.9990234c1.125,0,2.0244446-0.375,2.0244446-0.375l-0.9746399,8.9248047    c0,0-2.7001953,0.6748047-5.0244141,0.6748047c-6,0-9.4501953-2.3242188-12.9746094-10.3496094    c-1.5-3.5996094-3.6005859-9.8994141-6.375-9.8994141h-2.8496094v20.0244141h-12.5244141V57.0761719z M484.4299622,66.1513672    v12.4492188h4.4990234c3.6005859,0,7.7998047-1.125,7.7998047-6.5253906c0-4.4248047-2.8496094-5.9238281-6.2998047-5.9238281    H484.4299622z"/>
	</g>
</g>
</svg>