<svg xmlns="http://www.w3.org/2000/svg" width="128" height="128" preserveAspectRatio="xMidYMid meet" viewBox="0 0 128 128">
<path fill="#173f4f" d="m 64.000002,29.062253 c -18.089918,0 -33.027379,13.836204 -34.791306,31.471986 H 11.546679 a 3.4972378,3.497237 0 1 0 0,6.993775 H 29.208696 C 30.972623,85.1638 45.910084,99 64.000002,99 82.089918,99 97.027379,85.1638 98.791308,67.528014 h 17.662012 a 3.4972378,3.497237 0 1 0 0,-6.993775 H 98.791308 C 97.027379,42.898457 82.089918,29.062253 64.000002,29.062253 Z m 0,6.993775 c 15.374925,0 27.76163,12.304218 27.947784,27.633593 a 3.4972378,3.497237 0 0 0 0,0.669304 C 91.768948,79.6948 79.379564,92.00623 64.000002,92.00623 c -15.374926,0 -27.761631,-12.30422 -27.947786,-27.633597 a 3.4972378,3.497237 0 0 0 0,-0.669305 c 0.178841,-15.335879 12.568228,-27.6473 27.947786,-27.6473 z m 0,13.987549 c -7.683693,0 -13.987553,6.303839 -13.987553,13.98755 0,7.68371 6.30386,13.987553 13.987553,13.987553 7.683692,0 13.987556,-6.303843 13.987549,-13.987553 0,-7.683711 -6.303857,-13.98755 -13.987549,-13.98755 z m 0,6.993775 c 3.903975,0 6.993776,3.08978 6.993776,6.993775 0,3.903995 -3.089801,6.993774 -6.993776,6.993774 -3.903976,0 -6.993777,-3.089779 -6.993777,-6.993774 0,-3.903995 3.089801,-6.993775 6.993777,-6.993775 z"/>
</svg>