<?xml version="1.0" encoding="utf-8"?>
<!-- Generator: Adobe Illustrator 24.0.1, SVG Export Plug-In . SVG Version: 6.00 Build 0)  -->
<svg version="1.1" id="Ebene_1" xmlns="http://www.w3.org/2000/svg" xmlns:xlink="http://www.w3.org/1999/xlink" x="0px" y="0px"
	 width="309.978px" height="150px" viewBox="0 0 309.978 150" enable-background="new 0 0 309.978 150" xml:space="preserve">
<g>
	<path fill="#AFCA0B" d="M136.954,122.389c-0.151,0.454-0.38,0.987-0.38,1.216c0,0.456,0.456,0.76,0.836,0.76h4.18
		c0.837,0,1.673-0.837,1.902-1.522l5.017-15.431h21.895l5.169,15.431c0.228,0.685,1.064,1.522,1.9,1.522h4.181
		c0.382,0,0.838-0.304,0.838-0.76c0-0.229-0.23-0.762-0.382-1.216L165.006,70.39c-0.532-1.596-2.131-2.66-4.031-2.887
		c-2.128-0.229-3.039,0-3.039,0c-1.826,0.227-3.421,1.291-3.954,2.887L136.954,122.389L136.954,122.389z M168.427,101.558h-17.942
		l7.983-24.098l0.988-4.788l0.988,4.788L168.427,101.558L168.427,101.558z"/>
	<path fill="#AFCA0B" d="M0.381,122.389C0.228,122.843,0,123.376,0,123.605c0,0.456,0.456,0.76,0.836,0.76h4.18
		c0.836,0,1.672-0.837,1.9-1.522l5.017-15.431h21.894l5.169,15.431c0.229,0.685,1.065,1.522,1.9,1.522h4.182
		c0.381,0,0.836-0.304,0.836-0.76c0-0.229-0.228-0.762-0.38-1.216L28.431,70.39c-0.532-1.596-2.13-2.66-4.029-2.887
		c-2.129-0.229-3.04,0-3.04,0c-1.824,0.227-3.421,1.291-3.953,2.887L0.381,122.389L0.381,122.389z M31.852,101.558H13.911
		l7.982-24.098l0.988-4.788l0.989,4.788L31.852,101.558L31.852,101.558z"/>
	<path fill="#AFCA0B" d="M58.137,118.513c-0.456,0-0.76-0.306-0.76-0.762V68.642c0-0.456-0.381-0.76-0.759-0.76h-5.322
		c-0.456,0-0.76,0.381-0.76,0.76v48.881c0,4.028,2.432,6.842,6.842,6.842h21.969h0.76c0.381,0,0.761-0.304,0.761-0.76v-4.334
		c0-0.381-0.304-0.758-0.761-0.758H58.137L58.137,118.513z"/>
	<path fill="#AFCA0B" d="M94.229,118.513c-0.457,0-0.76-0.306-0.76-0.762V68.642c0-0.456-0.381-0.76-0.76-0.76h-5.322
		c-0.456,0-0.759,0.381-0.759,0.76v48.881c0,4.028,2.432,6.842,6.841,6.842h21.97h0.76c0.38,0,0.761-0.304,0.761-0.76v-4.334
		c0-0.381-0.305-0.758-0.761-0.758H94.229L94.229,118.513z"/>
	<path fill="#AFCA0B" d="M130.093,68.642c0-0.379-0.304-0.76-0.761-0.76h-5.32c-0.381,0-0.76,0.304-0.76,0.76v54.963
		c0,0.456,0.38,0.76,0.76,0.76h5.32c0.457,0,0.761-0.381,0.761-0.76V68.642L130.093,68.642z"/>
	<path fill="#AFCA0B" d="M220.533,117.372l-0.152,3.345l-1.367-3.345l-18.701-46.753c-0.837-2.508-3.345-3.268-6.539-3.268h-1.139
		c-3.419,0-5.624,2.812-5.624,5.625v50.629c0,0.379,0.302,0.76,0.758,0.76h5.322c0.38,0,0.835-0.304,0.835-0.76V76.094l-0.228-3.955
		l1.824,4.03l17.941,45.156c0.837,2.585,3.573,3.422,6.917,3.422h1.216c3.498,0,5.854-2.89,5.854-5.856V68.642
		c0-0.456-0.456-0.76-0.836-0.76h-5.322c-0.456,0-0.76,0.381-0.76,0.76V117.372L220.533,117.372z"/>
	<path fill="#AFCA0B" d="M268.489,124.365c0.381,0,0.761-0.304,0.761-0.76v-4.334c0-0.381-0.305-0.758-0.761-0.758h-20.981
		c-2.89,0-4.79-2.433-4.79-4.79V78.524c0-2.356,1.9-4.788,4.79-4.788h20.981c0.381,0,0.761-0.304,0.761-0.76v-4.334
		c0-0.379-0.305-0.76-0.761-0.76h-3.193H246.9c-6.993,0-11.023,5.55-11.023,11.023v34.436c0,5.473,4.03,11.023,11.023,11.023h14.139
		H268.489L268.489,124.365z"/>
	<path fill="#AFCA0B" d="M309.218,124.365c0.379,0,0.76-0.304,0.76-0.76v-4.334c0-0.381-0.306-0.758-0.76-0.758h-24.935
		c-0.379,0-0.76-0.306-0.76-0.762V98.062h20.374c0.38,0,0.76-0.304,0.76-0.76v-4.332c0-0.381-0.304-0.76-0.76-0.76h-1.216h-19.158
		V74.496c0-0.381,0.304-0.76,0.76-0.76h24.935c0.379,0,0.76-0.304,0.76-0.76v-4.334c0-0.379-0.306-0.76-0.76-0.76h-25.695
		c-4.331,0-6.842,3.422-6.842,6.841v42.8c0,3.801,3.118,6.842,6.842,6.842H309.218L309.218,124.365z"/>
	<path fill="#008BC5" d="M43.798,11.509c0-5.94-5.942-11.467-11.466-11.467H13.362c-6.149,0-11.361,5.004-11.361,11.362v34.709
		c0,5.628,3.649,11.257,11.257,11.257h19.7c7.192,0,10.84-5.629,10.84-11.257V11.509L43.798,11.509z M34.418,46.01
		c0,1.667-1.355,3.336-3.337,3.336H14.822c-1.98,0-3.335-1.669-3.335-3.336V11.509c0-2.085,1.666-3.441,3.438-3.441h16.156
		c1.982,0,3.337,1.669,3.337,3.337V46.01L34.418,46.01z"/>
	<path fill="#008BC5" d="M85.386,8.068c0.521,0,1.042-0.416,1.042-1.042v-5.94c0-0.521-0.417-1.044-1.042-1.044H61.724
		c-5.315,0-10.632,3.024-10.632,9.381v7.4c0,3.232,0.627,7.819,9.174,11.675l16.572,9.067c2.919,1.251,2.919,3.649,2.919,5.004
		v3.544c0,1.668-1.355,3.232-3.335,3.232H52.447c-0.519,0-1.042,0.416-1.042,1.042v5.942c0,0.52,0.417,1.042,1.042,1.042h25.747
		c3.751,0,10.735-1.669,10.735-10.216v-5.94c0-3.752-0.624-7.297-9.172-11.674l-16.469-9.172c-3.022-1.563-3.022-3.545-3.022-4.899
		v-4.065c0-1.668,1.355-3.337,3.335-3.337H85.386L85.386,8.068z"/>
	<path fill="#008BC5" d="M105.157,24.963h12.896c3.19,0,5.266-2.642,5.266-5.265v-8.148c0-1.731-1.407-3.489-3.488-3.489h-14.673
		V24.963L105.157,24.963z M119.978,33.025h-14.821v16.309h15.784c2.082,0,3.489-1.757,3.489-3.488v-8.371
		C124.43,35.295,122.647,33.025,119.978,33.025L119.978,33.025z M132.343,11.918v8c0,4.034-1.317,6.973-3.641,8.875
		c3.164,2.137,4.752,5.633,4.752,8.682v8c0,5.875-4.35,11.919-11.92,11.919H98.052c-1.174,0-1.919-0.98-1.919-1.919V1.919
		C96.133,0.746,97.11,0,98.052,0h22.371C127.993,0,132.343,6.045,132.343,11.918L132.343,11.918z"/>
	<path fill="#008BC5" d="M147.64,44.349v-8.353h6.876c1.221,0,2.023,1.028,2.023,2.025v3.533c0,1.382-1.092,2.795-2.795,2.795
		H147.64L147.64,44.349z M154.579,46.824c1.478,0,2.442,1.253,2.442,2.441v3.63c0,0.996-0.804,2.025-2.024,2.025h-7.357v-8.096
		H154.579L154.579,46.824z M155.254,57.394c2.955,0,4.658-2.345,4.658-4.658v-3.47c0-1.414-0.9-3.084-2.666-3.662
		c1.349-0.643,2.184-1.895,2.184-3.952v-3.47c0-2.312-1.702-4.658-4.658-4.658h-9.703c-0.161,0-0.321,0.129-0.321,0.321v23.229
		c0,0.16,0.129,0.321,0.321,0.321H155.254L155.254,57.394z"/>
	<path fill="#008BC5" d="M167.559,54.92c-0.642,0-1.061-0.547-1.061-1.061V40.045c0-0.161-0.128-0.322-0.321-0.322h-2.25
		c-0.159,0-0.32,0.129-0.32,0.322v13.815c0,1.768,1.286,3.534,3.534,3.534c6.875,0,2.987,0,5.751,0c2.249,0,3.535-1.767,3.535-3.534
		V40.045c0-0.161-0.129-0.322-0.324-0.322h-2.28c-0.161,0-0.321,0.129-0.321,0.322v13.815c0,0.514-0.417,1.061-1.058,1.061H167.559
		L167.559,54.92z"/>
	<path fill="#008BC5" d="M190.851,42.197c0.161,0,0.321-0.129,0.321-0.321v-1.831c0-0.161-0.127-0.322-0.321-0.322h-7.292
		c-1.639,0-3.279,0.932-3.279,2.892v2.281c0,0.996,0.193,2.41,2.827,3.599l5.109,2.796c0.9,0.386,0.9,1.124,0.9,1.542v1.092
		c0,0.515-0.418,0.996-1.028,0.996h-7.39c-0.161,0-0.321,0.128-0.321,0.321v1.831c0,0.16,0.128,0.321,0.321,0.321h7.937
		c1.156,0,3.309-0.514,3.309-3.149v-1.831c0-1.156-0.193-2.249-2.827-3.598l-5.077-2.827c-0.933-0.482-0.933-1.093-0.933-1.511
		v-1.253c0-0.514,0.419-1.028,1.031-1.028H190.851L190.851,42.197z"/>
	<path fill="#008BC5" d="M198.981,36.703c0.158,0,0.321-0.128,0.321-0.322v-2.538c0-0.161-0.131-0.321-0.321-0.321h-2.444
		c-0.193,0-0.321,0.16-0.321,0.321v2.538c0,0.193,0.161,0.322,0.321,0.322H198.981L198.981,36.703z M196.312,57.072
		c0,0.193,0.161,0.321,0.323,0.321h2.248c0.193,0,0.321-0.161,0.321-0.321V40.045c0-0.161-0.128-0.322-0.321-0.322h-2.248
		c-0.162,0-0.323,0.129-0.323,0.322V57.072L196.312,57.072z"/>
	<path fill="#008BC5" d="M212.762,42.197c0.643,0,1.059,0.547,1.059,1.06v13.815c0,0.16,0.131,0.321,0.324,0.321h2.248
		c0.161,0,0.322-0.129,0.322-0.321V43.257c0-1.767-1.286-3.534-3.534-3.534c-6.875,0-2.989,0-5.752,0
		c-2.249,0-3.534,1.768-3.534,3.534v13.815c0,0.16,0.129,0.321,0.321,0.321h2.28c0.163,0,0.324-0.129,0.324-0.321V43.257
		c0-0.513,0.383-1.06,1.026-1.06H212.762L212.762,42.197z"/>
	<path fill="#008BC5" d="M223.782,51.514c0-0.418,0.064-0.739,0.611-0.932l7.389-1.671c1.703-0.674,1.703-2.152,1.703-3.212V42.55
		c0-1.959-1.542-2.828-2.988-2.828h-6.715c-1.864,0-2.891,1.189-2.891,2.892v11.085v0.803c0,1.96,1.509,2.892,2.988,2.892h8.45
		c0.129,0,0.224-0.129,0.224-0.225v-2.025c0-0.128-0.095-0.224-0.224-0.224h-7.327c-0.609,0-1.22-0.353-1.22-1.092V51.514
		L223.782,51.514z M224.939,47.884l-1.157,0.514v-5.237c0-0.611,0.386-0.964,0.997-0.964h5.044c0.482,0,0.996,0.289,0.996,0.899
		v2.186c0,0.256,0.032,1.22-0.675,1.381L224.939,47.884L224.939,47.884z"/>
	<path fill="#008BC5" d="M247.588,42.197c0.161,0,0.321-0.129,0.321-0.321v-1.831c0-0.161-0.128-0.322-0.321-0.322h-7.292
		c-1.639,0-3.279,0.932-3.279,2.892v2.281c0,0.996,0.193,2.41,2.827,3.599l5.109,2.796c0.899,0.386,0.899,1.124,0.899,1.542v1.092
		c0,0.515-0.418,0.996-1.028,0.996h-7.39c-0.161,0-0.321,0.128-0.321,0.321v1.831c0,0.16,0.128,0.321,0.321,0.321h7.935
		c1.158,0,3.311-0.514,3.311-3.149v-1.831c0-1.156-0.193-2.249-2.828-3.598l-5.076-2.827c-0.933-0.482-0.933-1.093-0.933-1.511
		v-1.253c0-0.514,0.419-1.028,1.031-1.028H247.588L247.588,42.197z"/>
	<path fill="#008BC5" d="M262.785,42.197c0.16,0,0.321-0.129,0.321-0.321v-1.831c0-0.161-0.128-0.322-0.321-0.322h-7.292
		c-1.639,0-3.279,0.932-3.279,2.892v2.281c0,0.996,0.193,2.41,2.827,3.599l5.109,2.796c0.899,0.386,0.899,1.124,0.899,1.542v1.092
		c0,0.515-0.418,0.996-1.027,0.996h-7.39c-0.161,0-0.321,0.128-0.321,0.321v1.831c0,0.16,0.128,0.321,0.321,0.321h7.935
		c1.157,0,3.311-0.514,3.311-3.149v-1.831c0-1.156-0.193-2.249-2.828-3.598l-5.076-2.827c-0.933-0.482-0.933-1.093-0.933-1.511
		v-1.253c0-0.514,0.419-1.028,1.028-1.028H262.785L262.785,42.197z"/>
	<path fill="#008BC5" d="M155.435,23.873c2.957,0,4.659-2.345,4.659-4.658V4.66c0-2.312-1.702-4.658-4.659-4.658h-6.329
		c-2.956,0-4.659,2.346-4.659,4.658v14.555c0,2.313,1.703,4.658,4.659,4.658H155.435L155.435,23.873z M149.363,21.399
		c-1.221,0-2.025-1.028-2.025-2.024V4.5c0-0.996,0.804-2.024,2.025-2.024h5.815c1.22,0,2.023,1.028,2.023,2.024v14.875
		c0,0.996-0.803,2.024-2.023,2.024H149.363L149.363,21.399z"/>
	<path fill="#008BC5" d="M164.431,29.849c0,0.193,0.161,0.321,0.321,0.321H167c0.193,0,0.321-0.161,0.321-0.321v-5.976
		c0.515,0,1.157,0,6.62,0c2.184,0,3.469-1.734,3.469-3.469V9.737c0-1.96-1.607-3.534-3.535-3.534H167.9
		c-2.25,0-3.469,1.413-3.469,3.469V29.849L164.431,29.849z M167.354,9.673c0-0.513,0.386-0.996,0.996-0.996h5.109
		c0.515,0,1.059,0.418,1.059,1.061v10.635c0,0.513-0.419,1.028-1.027,1.028h-6.138V9.673L167.354,9.673z"/>
	<path fill="#008BC5" d="M183.996,17.994c0-0.417,0.064-0.738,0.611-0.932l7.388-1.671c1.703-0.674,1.703-2.152,1.703-3.213V9.03
		c0-1.959-1.541-2.827-2.988-2.827h-6.714c-1.862,0-2.893,1.189-2.893,2.891v11.084v0.804c0,1.959,1.512,2.89,2.989,2.89h8.449
		c0.13,0,0.224-0.128,0.224-0.225v-2.024c0-0.129-0.094-0.225-0.224-0.225h-7.325c-0.61,0-1.221-0.353-1.221-1.092V17.994
		L183.996,17.994z M185.154,14.363l-1.157,0.515V9.641c0-0.611,0.386-0.965,0.995-0.965h5.044c0.482,0,0.996,0.29,0.996,0.9v2.185
		c0,0.257,0.032,1.221-0.674,1.381L185.154,14.363L185.154,14.363z"/>
	<path fill="#008BC5" d="M206.421,8.676c0.643,0,1.059,0.547,1.059,1.061v13.815c0,0.161,0.131,0.321,0.324,0.321h2.248
		c0.161,0,0.322-0.128,0.322-0.321V9.737c0-1.768-1.286-3.534-3.534-3.534c-6.875,0-2.988,0-5.752,0
		c-2.249,0-3.534,1.766-3.534,3.534v13.815c0,0.161,0.129,0.321,0.321,0.321h2.28c0.163,0,0.324-0.128,0.324-0.321V9.737
		c0-0.514,0.383-1.061,1.026-1.061H206.421L206.421,8.676z"/>
	<path fill="#008BC5" d="M230.486,23.873c1.959,0,4.016-1.189,4.016-3.823v-3.02c0-1.446,0-3.438-2.315-4.37l-8.61-3.437
		c-0.898-0.353-0.803-1.734-0.803-2.152V3.954c0-0.996,0.835-1.478,1.671-1.478h9.19c0.16,0,0.321-0.129,0.321-0.321V0.324
		c0-0.161-0.128-0.322-0.321-0.322h-9.608c-1.959,0-4.014,1.253-4.014,3.888v3.341c0,1.446,0.031,3.534,2.602,4.467l8.32,3.405
		c0.868,0.353,0.805,1.735,0.805,2.153v2.666c0,0.996-0.837,1.478-1.672,1.478h-9.477c-0.161,0-0.321,0.129-0.321,0.321v1.832
		c0,0.161,0.131,0.321,0.321,0.321H230.486L230.486,23.873z"/>
	<path fill="#008BC5" d="M250.918,9.737c0-1.831-1.831-3.534-3.533-3.534h-5.846c-1.897,0-3.502,1.542-3.502,3.502v10.698
		c0,1.735,1.123,3.469,3.469,3.469h6.072c2.216,0,3.34-1.734,3.34-3.469V9.737L250.918,9.737z M248.027,20.372
		c0,0.513-0.418,1.028-1.028,1.028h-5.012c-0.612,0-1.027-0.514-1.027-1.028V9.737c0-0.643,0.514-1.061,1.058-1.061h4.981
		c0.611,0,1.028,0.514,1.028,1.029V20.372L248.027,20.372z"/>
	<path fill="#008BC5" d="M259.046,21.399c-0.641,0-1.06-0.545-1.06-1.06V6.525c0-0.161-0.128-0.322-0.321-0.322h-2.249
		c-0.161,0-0.321,0.129-0.321,0.322v13.815c0,1.767,1.284,3.533,3.533,3.533c6.876,0,2.988,0,5.753,0
		c2.247,0,3.533-1.767,3.533-3.533V6.525c0-0.161-0.13-0.322-0.323-0.322h-2.28c-0.161,0-0.321,0.129-0.321,0.322v13.815
		c0,0.515-0.418,1.06-1.061,1.06H259.046L259.046,21.399z"/>
	<path fill="#008BC5" d="M280.122,8.837c0.161,0,0.322-0.129,0.322-0.321V6.525c0-0.161-0.129-0.322-0.322-0.322h-4.498
		c-2.249,0-3.534,1.766-3.534,3.534l0.032,13.815c0,0.161,0.131,0.321,0.321,0.321h2.28c0.161,0,0.321-0.128,0.321-0.321
		l0.032-13.944c0-0.579,0.547-0.771,0.707-0.771H280.122L280.122,8.837z"/>
	<path fill="#008BC5" d="M293.07,23.873c0.159,0,0.321-0.128,0.321-0.321V21.72c0-0.161-0.13-0.321-0.321-0.321h-6.714
		c-0.514,0-0.997-0.386-0.997-0.996V9.705c0-0.515,0.418-1.029,1.027-1.029h6.684c0.159,0,0.321-0.129,0.321-0.321V6.525
		c0-0.161-0.13-0.322-0.321-0.322h-0.514h-6.586c-2.218,0-3.503,1.766-3.503,3.502v10.667c0,1.959,1.607,3.501,3.503,3.501h4.786
		H293.07L293.07,23.873z"/>
	<path fill="#008BC5" d="M299.495,17.994c0-0.417,0.065-0.738,0.611-0.932l7.389-1.671c1.703-0.674,1.703-2.152,1.703-3.213V9.03
		c0-1.959-1.543-2.827-2.989-2.827h-6.714c-1.864,0-2.891,1.189-2.891,2.891v11.084v0.804c0,1.959,1.509,2.89,2.989,2.89h8.449
		c0.129,0,0.224-0.128,0.224-0.225v-2.024c0-0.129-0.095-0.225-0.224-0.225h-7.325c-0.611,0-1.221-0.353-1.221-1.092V17.994
		L299.495,17.994z M300.652,14.363l-1.157,0.515V9.641c0-0.611,0.386-0.965,0.997-0.965h5.044c0.482,0,0.996,0.29,0.996,0.9v2.185
		c0,0.257,0.032,1.221-0.675,1.381L300.652,14.363L300.652,14.363z"/>
</g>
<g>
	<path fill="#008BC5" d="M0,146.954v-10.412h3.568c1.177,0,2.074,0.236,2.689,0.709c0.615,0.472,0.922,1.175,0.922,2.109
		c0,0.477-0.128,0.906-0.386,1.287c-0.257,0.382-0.634,0.677-1.13,0.887c0.562,0.152,0.998,0.44,1.305,0.862
		c0.307,0.422,0.461,0.929,0.461,1.519c0,0.977-0.313,1.728-0.94,2.253s-1.524,0.787-2.692,0.787H0z M1.809,140.926h1.773
		c0.562,0,1.002-0.128,1.319-0.383s0.476-0.616,0.476-1.084c0-0.514-0.147-0.887-0.44-1.115c-0.293-0.229-0.75-0.343-1.369-0.343
		H1.809V140.926z M1.809,142.256v3.253h2.009c0.567,0,1.01-0.14,1.33-0.422c0.319-0.281,0.479-0.672,0.479-1.173
		c0-1.082-0.553-1.635-1.659-1.659H1.809z"/>
	<path fill="#008BC5" d="M14.271,146.196c-0.51,0.601-1.235,0.901-2.174,0.901c-0.839,0-1.474-0.246-1.906-0.736
		c-0.432-0.491-0.647-1.202-0.647-2.131v-5.013h1.738v4.992c0,0.982,0.407,1.473,1.223,1.473c0.844,0,1.413-0.303,1.709-0.908
		v-5.556h1.737v7.737h-1.637L14.271,146.196z"/>
	<path fill="#008BC5" d="M19.846,139.217l0.05,0.894c0.572-0.691,1.323-1.036,2.253-1.036c1.611,0,2.431,0.923,2.46,2.767v5.113
		h-1.737v-5.013c0-0.49-0.107-0.854-0.318-1.09c-0.212-0.236-0.559-0.353-1.04-0.353c-0.701,0-1.223,0.317-1.566,0.951v5.506h-1.737
		v-7.737H19.846z"/>
	<path fill="#008BC5" d="M26.565,143.028c0-1.191,0.276-2.148,0.829-2.871c0.553-0.722,1.295-1.084,2.224-1.084
		c0.82,0,1.482,0.286,1.988,0.858v-3.962h1.738v10.983h-1.573l-0.086-0.801c-0.52,0.629-1.213,0.944-2.081,0.944
		c-0.906,0-1.639-0.365-2.199-1.094C26.845,145.274,26.565,144.282,26.565,143.028z M28.303,143.179c0,0.787,0.151,1.4,0.454,1.841
		c0.303,0.441,0.733,0.662,1.291,0.662c0.71,0,1.23-0.318,1.559-0.951v-3.304c-0.319-0.62-0.834-0.929-1.544-0.929
		c-0.563,0-0.996,0.223-1.301,0.668C28.455,141.612,28.303,142.283,28.303,143.179z"/>
	<path fill="#008BC5" d="M39.076,147.097c-1.101,0-1.994-0.347-2.678-1.041c-0.684-0.693-1.026-1.617-1.026-2.77v-0.215
		c0-0.772,0.149-1.462,0.447-2.07c0.298-0.609,0.716-1.081,1.255-1.42c0.538-0.338,1.139-0.508,1.802-0.508
		c1.053,0,1.867,0.336,2.442,1.008c0.574,0.672,0.861,1.624,0.861,2.854v0.7h-5.055c0.052,0.639,0.266,1.144,0.64,1.517
		c0.374,0.371,0.845,0.557,1.412,0.557c0.796,0,1.445-0.322,1.945-0.965l0.937,0.894c-0.31,0.462-0.723,0.821-1.241,1.076
		S39.72,147.097,39.076,147.097z M38.869,140.468c-0.477,0-0.862,0.167-1.155,0.501c-0.293,0.334-0.48,0.799-0.561,1.394h3.311
		v-0.128c-0.038-0.582-0.193-1.021-0.465-1.32C39.727,140.617,39.351,140.468,38.869,140.468z"/>
	<path fill="#008BC5" d="M48.377,144.852c0-0.31-0.128-0.546-0.383-0.708c-0.255-0.163-0.678-0.306-1.269-0.43
		c-0.591-0.123-1.085-0.281-1.48-0.472c-0.868-0.419-1.301-1.027-1.301-1.824c0-0.667,0.281-1.225,0.843-1.673
		c0.563-0.448,1.278-0.672,2.145-0.672c0.925,0,1.672,0.229,2.242,0.686c0.57,0.458,0.855,1.051,0.855,1.78h-1.738
		c0-0.333-0.124-0.611-0.372-0.833c-0.248-0.222-0.577-0.332-0.987-0.332c-0.381,0-0.692,0.088-0.933,0.264
		c-0.241,0.176-0.361,0.413-0.361,0.708c0,0.267,0.112,0.474,0.336,0.622c0.224,0.147,0.677,0.296,1.359,0.447
		c0.682,0.15,1.217,0.329,1.605,0.536c0.389,0.208,0.677,0.457,0.865,0.748c0.188,0.29,0.282,0.643,0.282,1.058
		c0,0.696-0.288,1.26-0.865,1.691s-1.332,0.647-2.266,0.647c-0.634,0-1.199-0.115-1.695-0.343c-0.496-0.229-0.882-0.543-1.158-0.944
		c-0.276-0.401-0.415-0.832-0.415-1.294h1.688c0.024,0.41,0.178,0.726,0.465,0.947c0.286,0.222,0.665,0.333,1.137,0.333
		c0.457,0,0.805-0.087,1.044-0.261C48.258,145.36,48.377,145.133,48.377,144.852z"/>
	<path fill="#008BC5" d="M54.839,144.752l1.638-5.535h1.795l-2.681,7.737h-1.509l-2.703-7.737h1.802L54.839,144.752z"/>
	<path fill="#008BC5" d="M63.181,147.097c-1.101,0-1.994-0.347-2.678-1.041c-0.684-0.693-1.026-1.617-1.026-2.77v-0.215
		c0-0.772,0.149-1.462,0.447-2.07c0.298-0.609,0.716-1.081,1.255-1.42c0.538-0.338,1.139-0.508,1.802-0.508
		c1.053,0,1.867,0.336,2.442,1.008c0.574,0.672,0.861,1.624,0.861,2.854v0.7H61.23c0.052,0.639,0.266,1.144,0.64,1.517
		c0.374,0.371,0.845,0.557,1.412,0.557c0.796,0,1.445-0.322,1.945-0.965l0.937,0.894c-0.31,0.462-0.723,0.821-1.241,1.076
		S63.825,147.097,63.181,147.097z M62.974,140.468c-0.477,0-0.862,0.167-1.155,0.501c-0.293,0.334-0.48,0.799-0.561,1.394h3.311
		v-0.128c-0.038-0.582-0.193-1.021-0.465-1.32C63.832,140.617,63.456,140.468,62.974,140.468z"/>
	<path fill="#008BC5" d="M72.196,140.804c-0.229-0.039-0.465-0.057-0.708-0.057c-0.796,0-1.333,0.306-1.609,0.915v5.292h-1.737
		v-7.737h1.659l0.043,0.865c0.419-0.672,1.001-1.008,1.745-1.008c0.248,0,0.453,0.033,0.615,0.1L72.196,140.804z"/>
	<path fill="#008BC5" d="M80.596,143.164c0,1.202-0.268,2.157-0.805,2.867c-0.536,0.71-1.274,1.066-2.213,1.066
		c-0.906,0-1.612-0.326-2.117-0.98l-0.086,0.837h-1.573V135.97h1.737v3.99c0.501-0.591,1.175-0.887,2.024-0.887
		c0.944,0,1.685,0.35,2.224,1.051c0.539,0.701,0.808,1.681,0.808,2.939V143.164z M78.859,143.014c0-0.84-0.148-1.469-0.443-1.888
		c-0.296-0.419-0.725-0.629-1.287-0.629c-0.753,0-1.283,0.329-1.588,0.987v3.189c0.31,0.672,0.844,1.008,1.602,1.008
		c0.543,0,0.963-0.203,1.259-0.608c0.296-0.406,0.448-1.018,0.458-1.838V143.014z"/>
	<path fill="#008BC5" d="M87.187,146.954c-0.076-0.148-0.143-0.389-0.2-0.722c-0.553,0.577-1.23,0.865-2.031,0.865
		c-0.777,0-1.411-0.222-1.902-0.665c-0.491-0.443-0.736-0.991-0.736-1.645c0-0.824,0.306-1.457,0.919-1.898
		c0.612-0.441,1.488-0.662,2.628-0.662h1.066v-0.508c0-0.401-0.112-0.721-0.336-0.961c-0.224-0.241-0.565-0.361-1.022-0.361
		c-0.396,0-0.72,0.098-0.973,0.296c-0.252,0.199-0.379,0.449-0.379,0.755h-1.738c0-0.425,0.141-0.822,0.422-1.191
		c0.281-0.37,0.664-0.659,1.148-0.869c0.484-0.21,1.024-0.315,1.62-0.315c0.906,0,1.628,0.228,2.167,0.683
		c0.538,0.455,0.815,1.096,0.829,1.92v3.489c0,0.697,0.098,1.251,0.293,1.666v0.122H87.187z M85.278,145.703
		c0.343,0,0.666-0.083,0.969-0.251c0.303-0.166,0.53-0.39,0.683-0.672v-1.458h-0.937c-0.644,0-1.128,0.112-1.452,0.335
		c-0.324,0.224-0.487,0.542-0.487,0.952c0,0.334,0.111,0.599,0.333,0.797S84.906,145.703,85.278,145.703z"/>
	<path fill="#008BC5" d="M92.612,139.217l0.05,0.894c0.572-0.691,1.323-1.036,2.253-1.036c1.611,0,2.431,0.923,2.46,2.767v5.113
		h-1.737v-5.013c0-0.49-0.107-0.854-0.318-1.09c-0.212-0.236-0.559-0.353-1.04-0.353c-0.701,0-1.223,0.317-1.566,0.951v5.506h-1.737
		v-7.737H92.612z"/>
	<path fill="#008BC5" d="M99.332,143.028c0-1.191,0.276-2.148,0.829-2.871c0.553-0.722,1.295-1.084,2.224-1.084
		c0.82,0,1.482,0.286,1.988,0.858v-3.962h1.738v10.983h-1.573l-0.086-0.801c-0.52,0.629-1.213,0.944-2.081,0.944
		c-0.906,0-1.639-0.365-2.199-1.094C99.612,145.274,99.332,144.282,99.332,143.028z M101.069,143.179c0,0.787,0.151,1.4,0.454,1.841
		c0.303,0.441,0.733,0.662,1.291,0.662c0.71,0,1.23-0.318,1.559-0.951v-3.304c-0.319-0.62-0.834-0.929-1.544-0.929
		c-0.563,0-0.996,0.223-1.301,0.668C101.222,141.612,101.069,142.283,101.069,143.179z"/>
	<path fill="#008BC5" d="M113.206,146.954v-6.45h-1.18v-1.287h1.18v-0.708c0-0.858,0.238-1.521,0.715-1.988
		c0.477-0.466,1.144-0.7,2.002-0.7c0.305,0,0.629,0.043,0.972,0.128l-0.043,1.358c-0.191-0.038-0.413-0.056-0.665-0.056
		c-0.829,0-1.244,0.426-1.244,1.28v0.686h1.574v1.287h-1.574v6.45H113.206z"/>
	<path fill="#008BC5" d="M122.986,146.196c-0.51,0.601-1.235,0.901-2.174,0.901c-0.839,0-1.474-0.246-1.906-0.736
		c-0.432-0.491-0.647-1.202-0.647-2.131v-5.013h1.738v4.992c0,0.982,0.407,1.473,1.223,1.473c0.844,0,1.413-0.303,1.709-0.908
		v-5.556h1.737v7.737h-1.637L122.986,146.196z M118.946,137.186c0-0.238,0.08-0.438,0.239-0.6c0.16-0.163,0.38-0.244,0.662-0.244
		s0.503,0.081,0.665,0.244c0.162,0.162,0.243,0.362,0.243,0.6c0,0.239-0.081,0.439-0.243,0.601
		c-0.162,0.163-0.384,0.243-0.665,0.243s-0.502-0.08-0.662-0.243C119.026,137.625,118.946,137.425,118.946,137.186z
		 M122.214,137.193c0-0.239,0.08-0.439,0.24-0.601c0.16-0.162,0.38-0.243,0.661-0.243s0.503,0.081,0.665,0.243
		c0.162,0.162,0.243,0.362,0.243,0.601c0,0.238-0.081,0.438-0.243,0.601c-0.162,0.162-0.384,0.243-0.665,0.243
		s-0.502-0.081-0.661-0.243C122.294,137.632,122.214,137.431,122.214,137.193z"/>
	<path fill="#008BC5" d="M131,140.804c-0.229-0.039-0.465-0.057-0.708-0.057c-0.796,0-1.333,0.306-1.609,0.915v5.292h-1.737v-7.737
		h1.659l0.043,0.865c0.419-0.672,1.001-1.008,1.745-1.008c0.248,0,0.453,0.033,0.615,0.1L131,140.804z"/>
	<path fill="#008BC5" d="M136.444,143.028c0-1.191,0.276-2.148,0.829-2.871c0.553-0.722,1.295-1.084,2.224-1.084
		c0.82,0,1.482,0.286,1.988,0.858v-3.962h1.738v10.983h-1.573l-0.086-0.801c-0.52,0.629-1.213,0.944-2.081,0.944
		c-0.906,0-1.639-0.365-2.199-1.094C136.724,145.274,136.444,144.282,136.444,143.028z M138.182,143.179
		c0,0.787,0.151,1.4,0.454,1.841c0.303,0.441,0.733,0.662,1.291,0.662c0.71,0,1.23-0.318,1.559-0.951v-3.304
		c-0.319-0.62-0.834-0.929-1.544-0.929c-0.563,0-0.996,0.223-1.301,0.668C138.335,141.612,138.182,142.283,138.182,143.179z"/>
	<path fill="#008BC5" d="M145.552,137.207c0-0.266,0.084-0.488,0.254-0.665c0.169-0.176,0.411-0.264,0.726-0.264
		c0.315,0,0.558,0.088,0.729,0.264c0.172,0.177,0.258,0.399,0.258,0.665c0,0.263-0.086,0.481-0.258,0.655
		c-0.172,0.174-0.415,0.261-0.729,0.261c-0.315,0-0.557-0.087-0.726-0.261C145.636,137.688,145.552,137.47,145.552,137.207z
		 M147.397,146.954h-1.738v-7.737h1.738V146.954z"/>
	<path fill="#008BC5" d="M149.496,143.028c0-1.201,0.282-2.16,0.847-2.878c0.565-0.717,1.315-1.076,2.249-1.076
		c0.882,0,1.577,0.307,2.081,0.923l0.079-0.78h1.566v7.501c0,1.016-0.317,1.816-0.948,2.403c-0.632,0.586-1.484,0.879-2.557,0.879
		c-0.567,0-1.121-0.118-1.663-0.353c-0.541-0.236-0.952-0.545-1.233-0.926l0.822-1.044c0.534,0.634,1.191,0.951,1.974,0.951
		c0.576,0,1.032-0.156,1.366-0.468c0.334-0.312,0.5-0.771,0.5-1.377v-0.521c-0.5,0.557-1.167,0.836-2.001,0.836
		c-0.906,0-1.646-0.359-2.22-1.079C149.784,145.298,149.496,144.301,149.496,143.028z M151.227,143.179
		c0,0.777,0.158,1.388,0.475,1.834c0.317,0.446,0.757,0.668,1.319,0.668c0.701,0,1.221-0.3,1.558-0.901v-3.404
		c-0.329-0.586-0.844-0.879-1.544-0.879c-0.572,0-1.016,0.226-1.333,0.679C151.385,141.63,151.227,142.296,151.227,143.179z"/>
	<path fill="#008BC5" d="M158.618,137.207c0-0.266,0.085-0.488,0.254-0.665c0.169-0.176,0.411-0.264,0.726-0.264
		c0.315,0,0.558,0.088,0.729,0.264c0.172,0.177,0.258,0.399,0.258,0.665c0,0.263-0.086,0.481-0.258,0.655
		c-0.171,0.174-0.414,0.261-0.729,0.261c-0.315,0-0.556-0.087-0.726-0.261C158.703,137.688,158.618,137.47,158.618,137.207z
		 M160.463,146.954h-1.737v-7.737h1.737V146.954z"/>
	<path fill="#008BC5" d="M165.045,137.336v1.88h1.366v1.287h-1.366v4.319c0,0.296,0.058,0.509,0.175,0.64
		c0.116,0.131,0.325,0.197,0.626,0.197c0.2,0,0.403-0.024,0.608-0.072v1.345c-0.395,0.11-0.777,0.164-1.144,0.164
		c-1.334,0-2.002-0.736-2.002-2.21v-4.383h-1.273v-1.287h1.273v-1.88H165.045z"/>
	<path fill="#008BC5" d="M172.873,146.954c-0.077-0.148-0.144-0.389-0.2-0.722c-0.554,0.577-1.23,0.865-2.031,0.865
		c-0.777,0-1.411-0.222-1.903-0.665c-0.49-0.443-0.736-0.991-0.736-1.645c0-0.824,0.306-1.457,0.919-1.898
		c0.612-0.441,1.488-0.662,2.628-0.662h1.066v-0.508c0-0.401-0.112-0.721-0.336-0.961c-0.224-0.241-0.565-0.361-1.023-0.361
		c-0.395,0-0.72,0.098-0.972,0.296c-0.252,0.199-0.379,0.449-0.379,0.755h-1.737c0-0.425,0.14-0.822,0.422-1.191
		c0.282-0.37,0.664-0.659,1.148-0.869c0.484-0.21,1.024-0.315,1.619-0.315c0.906,0,1.628,0.228,2.167,0.683
		c0.538,0.455,0.815,1.096,0.829,1.92v3.489c0,0.697,0.098,1.251,0.294,1.666v0.122H172.873z M170.963,145.703
		c0.343,0,0.666-0.083,0.969-0.251c0.303-0.166,0.53-0.39,0.683-0.672v-1.458h-0.937c-0.644,0-1.127,0.112-1.452,0.335
		c-0.324,0.224-0.486,0.542-0.486,0.952c0,0.334,0.111,0.599,0.333,0.797C170.295,145.603,170.591,145.703,170.963,145.703z"/>
	<path fill="#008BC5" d="M178.533,146.954h-1.737V135.97h1.737V146.954z"/>
	<path fill="#008BC5" d="M184.345,147.097c-1.101,0-1.993-0.347-2.678-1.041c-0.684-0.693-1.026-1.617-1.026-2.77v-0.215
		c0-0.772,0.149-1.462,0.448-2.07c0.298-0.609,0.716-1.081,1.255-1.42c0.538-0.338,1.139-0.508,1.802-0.508
		c1.054,0,1.868,0.336,2.442,1.008c0.575,0.672,0.862,1.624,0.862,2.854v0.7h-5.056c0.053,0.639,0.266,1.144,0.64,1.517
		c0.374,0.371,0.845,0.557,1.412,0.557c0.796,0,1.445-0.322,1.945-0.965l0.936,0.894c-0.31,0.462-0.723,0.821-1.24,1.076
		C185.569,146.969,184.989,147.097,184.345,147.097z M184.138,140.468c-0.477,0-0.862,0.167-1.155,0.501
		c-0.294,0.334-0.481,0.799-0.561,1.394h3.311v-0.128c-0.039-0.582-0.193-1.021-0.465-1.32
		C184.996,140.617,184.619,140.468,184.138,140.468z"/>
	<path fill="#008BC5" d="M199.078,144.272c0-0.458-0.161-0.811-0.483-1.059c-0.322-0.247-0.903-0.498-1.742-0.751
		s-1.506-0.534-2.002-0.844c-0.949-0.596-1.423-1.373-1.423-2.331c0-0.84,0.342-1.53,1.026-2.074s1.572-0.816,2.663-0.816
		c0.725,0,1.371,0.134,1.938,0.401c0.567,0.267,1.013,0.647,1.338,1.141c0.324,0.493,0.486,1.04,0.486,1.641h-1.802
		c0-0.543-0.171-0.969-0.512-1.276c-0.341-0.307-0.828-0.461-1.462-0.461c-0.591,0-1.05,0.127-1.377,0.379
		c-0.326,0.252-0.49,0.605-0.49,1.058c0,0.382,0.176,0.7,0.529,0.955c0.353,0.255,0.935,0.502,1.745,0.744
		c0.811,0.24,1.461,0.514,1.952,0.822c0.49,0.308,0.851,0.661,1.079,1.059c0.229,0.398,0.343,0.864,0.343,1.398
		c0,0.868-0.332,1.558-0.997,2.07c-0.665,0.513-1.567,0.769-2.707,0.769c-0.753,0-1.446-0.14-2.077-0.419
		c-0.632-0.278-1.122-0.663-1.473-1.155c-0.35-0.491-0.525-1.063-0.525-1.716h1.809c0,0.591,0.195,1.048,0.586,1.373
		c0.391,0.324,0.951,0.486,1.68,0.486c0.63,0,1.102-0.128,1.42-0.383C198.919,145.029,199.078,144.692,199.078,144.272z"/>
	<path fill="#008BC5" d="M202.494,143.014c0-0.758,0.15-1.441,0.45-2.049c0.3-0.608,0.722-1.075,1.266-1.402
		c0.543-0.326,1.168-0.49,1.874-0.49c1.044,0,1.891,0.336,2.542,1.008c0.651,0.672,1.002,1.564,1.055,2.675l0.007,0.407
		c0,0.763-0.146,1.445-0.44,2.045c-0.293,0.601-0.713,1.066-1.258,1.395c-0.546,0.329-1.177,0.493-1.891,0.493
		c-1.092,0-1.965-0.364-2.621-1.09c-0.656-0.727-0.983-1.695-0.983-2.907V143.014z M204.231,143.164c0,0.796,0.164,1.419,0.494,1.87
		c0.329,0.45,0.787,0.675,1.373,0.675s1.042-0.229,1.369-0.686c0.326-0.458,0.49-1.127,0.49-2.009c0-0.782-0.168-1.402-0.504-1.86
		c-0.336-0.457-0.793-0.686-1.369-0.686c-0.567,0-1.018,0.225-1.351,0.676C204.398,141.594,204.231,142.268,204.231,143.164z"/>
	<path fill="#008BC5" d="M216.357,146.196c-0.51,0.601-1.235,0.901-2.174,0.901c-0.839,0-1.475-0.246-1.906-0.736
		c-0.431-0.491-0.647-1.202-0.647-2.131v-5.013h1.737v4.992c0,0.982,0.408,1.473,1.223,1.473c0.844,0,1.413-0.303,1.709-0.908
		v-5.556h1.737v7.737h-1.637L216.357,146.196z"/>
	<path fill="#008BC5" d="M223.048,144.752l1.637-5.535h1.795l-2.681,7.737h-1.509l-2.703-7.737h1.802L223.048,144.752z"/>
	<path fill="#008BC5" d="M231.39,147.097c-1.101,0-1.993-0.347-2.678-1.041c-0.684-0.693-1.026-1.617-1.026-2.77v-0.215
		c0-0.772,0.149-1.462,0.448-2.07c0.298-0.609,0.716-1.081,1.255-1.42c0.538-0.338,1.139-0.508,1.802-0.508
		c1.054,0,1.868,0.336,2.442,1.008c0.575,0.672,0.862,1.624,0.862,2.854v0.7h-5.056c0.053,0.639,0.266,1.144,0.64,1.517
		c0.374,0.371,0.845,0.557,1.412,0.557c0.796,0,1.445-0.322,1.945-0.965l0.936,0.894c-0.31,0.462-0.723,0.821-1.24,1.076
		C232.614,146.969,232.034,147.097,231.39,147.097z M231.183,140.468c-0.477,0-0.862,0.167-1.155,0.501
		c-0.294,0.334-0.481,0.799-0.561,1.394h3.311v-0.128c-0.039-0.582-0.193-1.021-0.465-1.32
		C232.041,140.617,231.664,140.468,231.183,140.468z"/>
	<path fill="#008BC5" d="M240.404,140.804c-0.229-0.039-0.465-0.057-0.708-0.057c-0.796,0-1.333,0.306-1.609,0.915v5.292h-1.737
		v-7.737h1.659l0.043,0.865c0.419-0.672,1.001-1.008,1.745-1.008c0.248,0,0.453,0.033,0.615,0.1L240.404,140.804z"/>
	<path fill="#008BC5" d="M246.424,146.954c-0.077-0.148-0.144-0.389-0.2-0.722c-0.554,0.577-1.23,0.865-2.031,0.865
		c-0.777,0-1.411-0.222-1.903-0.665c-0.49-0.443-0.736-0.991-0.736-1.645c0-0.824,0.306-1.457,0.919-1.898
		c0.612-0.441,1.488-0.662,2.628-0.662h1.066v-0.508c0-0.401-0.112-0.721-0.336-0.961c-0.224-0.241-0.565-0.361-1.023-0.361
		c-0.395,0-0.72,0.098-0.972,0.296c-0.252,0.199-0.379,0.449-0.379,0.755h-1.737c0-0.425,0.14-0.822,0.422-1.191
		c0.282-0.37,0.664-0.659,1.148-0.869c0.484-0.21,1.024-0.315,1.619-0.315c0.906,0,1.628,0.228,2.167,0.683
		c0.538,0.455,0.815,1.096,0.829,1.92v3.489c0,0.697,0.098,1.251,0.294,1.666v0.122H246.424z M242.433,137.186
		c0-0.238,0.08-0.438,0.239-0.6c0.16-0.163,0.381-0.244,0.662-0.244c0.282,0,0.503,0.081,0.665,0.244
		c0.163,0.162,0.243,0.362,0.243,0.6c0,0.239-0.08,0.439-0.243,0.601c-0.162,0.163-0.383,0.243-0.665,0.243
		c-0.281,0-0.502-0.08-0.662-0.243C242.513,137.625,242.433,137.425,242.433,137.186z M244.514,145.703
		c0.343,0,0.666-0.083,0.969-0.251c0.303-0.166,0.53-0.39,0.683-0.672v-1.458h-0.937c-0.644,0-1.127,0.112-1.452,0.335
		c-0.324,0.224-0.486,0.542-0.486,0.952c0,0.334,0.111,0.599,0.333,0.797C243.846,145.603,244.142,145.703,244.514,145.703z
		 M245.701,137.193c0-0.239,0.08-0.439,0.24-0.601c0.159-0.162,0.38-0.243,0.661-0.243c0.282,0,0.503,0.081,0.665,0.243
		c0.163,0.162,0.243,0.362,0.243,0.601c0,0.238-0.08,0.438-0.243,0.601c-0.162,0.162-0.383,0.243-0.665,0.243
		c-0.281,0-0.502-0.081-0.661-0.243C245.781,137.632,245.701,137.431,245.701,137.193z"/>
	<path fill="#008BC5" d="M251.848,139.217l0.05,0.894c0.572-0.691,1.322-1.036,2.252-1.036c1.612,0,2.432,0.923,2.46,2.767v5.113
		h-1.737v-5.013c0-0.49-0.106-0.854-0.318-1.09c-0.211-0.236-0.559-0.353-1.04-0.353c-0.701,0-1.223,0.317-1.566,0.951v5.506h-1.737
		v-7.737H251.848z"/>
	<path fill="#008BC5" d="M258.896,137.207c0-0.266,0.085-0.488,0.254-0.665c0.169-0.176,0.411-0.264,0.726-0.264
		s0.558,0.088,0.729,0.264c0.172,0.177,0.258,0.399,0.258,0.665c0,0.263-0.086,0.481-0.258,0.655
		c-0.171,0.174-0.414,0.261-0.729,0.261s-0.556-0.087-0.726-0.261C258.981,137.688,258.896,137.47,258.896,137.207z
		 M260.742,146.954h-1.737v-7.737h1.737V146.954z"/>
	<path fill="#008BC5" d="M265.322,137.336v1.88h1.366v1.287h-1.366v4.319c0,0.296,0.058,0.509,0.175,0.64
		c0.116,0.131,0.325,0.197,0.626,0.197c0.2,0,0.403-0.024,0.608-0.072v1.345c-0.395,0.11-0.777,0.164-1.144,0.164
		c-1.334,0-2.002-0.736-2.002-2.21v-4.383h-1.273v-1.287h1.273v-1.88H265.322z"/>
	<path fill="#008BC5" d="M273.151,146.954c-0.077-0.148-0.144-0.389-0.2-0.722c-0.554,0.577-1.23,0.865-2.031,0.865
		c-0.777,0-1.411-0.222-1.903-0.665c-0.49-0.443-0.736-0.991-0.736-1.645c0-0.824,0.306-1.457,0.919-1.898
		c0.612-0.441,1.488-0.662,2.628-0.662h1.066v-0.508c0-0.401-0.112-0.721-0.336-0.961c-0.224-0.241-0.565-0.361-1.023-0.361
		c-0.395,0-0.72,0.098-0.972,0.296c-0.253,0.199-0.379,0.449-0.379,0.755h-1.737c0-0.425,0.14-0.822,0.422-1.191
		c0.282-0.37,0.664-0.659,1.148-0.869c0.484-0.21,1.024-0.315,1.619-0.315c0.906,0,1.628,0.228,2.167,0.683
		c0.538,0.455,0.815,1.096,0.829,1.92v3.489c0,0.697,0.098,1.251,0.294,1.666v0.122H273.151z M269.161,137.186
		c0-0.238,0.08-0.438,0.239-0.6c0.16-0.163,0.381-0.244,0.662-0.244c0.282,0,0.503,0.081,0.665,0.244
		c0.163,0.162,0.243,0.362,0.243,0.6c0,0.239-0.08,0.439-0.243,0.601c-0.162,0.163-0.383,0.243-0.665,0.243
		c-0.281,0-0.502-0.08-0.662-0.243C269.24,137.625,269.161,137.425,269.161,137.186z M271.242,145.703
		c0.343,0,0.666-0.083,0.969-0.251c0.303-0.166,0.53-0.39,0.683-0.672v-1.458h-0.937c-0.644,0-1.127,0.112-1.452,0.335
		c-0.324,0.224-0.486,0.542-0.486,0.952c0,0.334,0.111,0.599,0.333,0.797C270.573,145.603,270.869,145.703,271.242,145.703z
		 M272.429,137.193c0-0.239,0.08-0.439,0.24-0.601c0.159-0.162,0.38-0.243,0.661-0.243c0.282,0,0.503,0.081,0.665,0.243
		c0.163,0.162,0.243,0.362,0.243,0.601c0,0.238-0.08,0.438-0.243,0.601c-0.162,0.162-0.383,0.243-0.665,0.243
		c-0.281,0-0.502-0.081-0.661-0.243C272.508,137.632,272.429,137.431,272.429,137.193z"/>
	<path fill="#008BC5" d="M279.14,137.336v1.88h1.366v1.287h-1.366v4.319c0,0.296,0.058,0.509,0.175,0.64
		c0.116,0.131,0.325,0.197,0.626,0.197c0.2,0,0.403-0.024,0.608-0.072v1.345c-0.395,0.11-0.777,0.164-1.144,0.164
		c-1.334,0-2.002-0.736-2.002-2.21v-4.383h-1.273v-1.287h1.273v-1.88H279.14z"/>
	<path fill="#008BC5" d="M289.912,147.097c-1.101,0-1.993-0.347-2.678-1.041c-0.684-0.693-1.026-1.617-1.026-2.77v-0.215
		c0-0.772,0.149-1.462,0.448-2.07c0.298-0.609,0.716-1.081,1.255-1.42c0.538-0.338,1.139-0.508,1.802-0.508
		c1.054,0,1.868,0.336,2.442,1.008c0.575,0.672,0.862,1.624,0.862,2.854v0.7h-5.056c0.053,0.639,0.266,1.144,0.64,1.517
		c0.374,0.371,0.845,0.557,1.412,0.557c0.796,0,1.445-0.322,1.945-0.965l0.936,0.894c-0.31,0.462-0.723,0.821-1.24,1.076
		C291.136,146.969,290.555,147.097,289.912,147.097z M289.705,140.468c-0.477,0-0.862,0.167-1.155,0.501
		c-0.294,0.334-0.481,0.799-0.561,1.394h3.311v-0.128c-0.039-0.582-0.193-1.021-0.465-1.32
		C290.563,140.617,290.186,140.468,289.705,140.468z"/>
	<path fill="#008BC5" d="M295.959,145.123c0.324,0,0.574,0.092,0.751,0.276c0.176,0.183,0.264,0.413,0.264,0.69
		c0,0.272-0.088,0.497-0.264,0.676c-0.176,0.178-0.426,0.268-0.751,0.268c-0.31,0-0.555-0.088-0.737-0.264
		c-0.181-0.176-0.271-0.403-0.271-0.68c0-0.276,0.088-0.507,0.264-0.69C295.392,145.215,295.64,145.123,295.959,145.123z"/>
	<path fill="#008BC5" d="M303.316,144.688l2.646-8.145h1.987l-3.746,10.412h-1.752l-3.733-10.412h1.981L303.316,144.688z"/>
	<path fill="#008BC5" d="M309.012,145.123c0.324,0,0.574,0.092,0.751,0.276c0.176,0.183,0.264,0.413,0.264,0.69
		c0,0.272-0.088,0.497-0.264,0.676c-0.176,0.178-0.426,0.268-0.751,0.268c-0.31,0-0.555-0.088-0.737-0.264
		c-0.181-0.176-0.271-0.403-0.271-0.68c0-0.276,0.088-0.507,0.264-0.69C308.445,145.215,308.693,145.123,309.012,145.123z"/>
</g>
</svg>
