<svg id="Layer_1" data-name="Layer 1" xmlns="http://www.w3.org/2000/svg" viewBox="0 0 660 430"><defs><style>.cls-1{fill:#292728;}</style></defs><path class="cls-1" d="M47.87,389.69q-8-2.85-11.56-6.39l7.21-12.92a36.13,36.13,0,0,0,8.91,5.37,27.72,27.72,0,0,0,11.62,2.79q7.22,0,11.77-3.4a11.07,11.07,0,0,0,4.56-9.39,13.32,13.32,0,0,0-2.46-8,21.47,21.47,0,0,0-6-5.65q-3.54-2.24-10.06-5.5a106.48,106.48,0,0,1-10.61-5.72Q38.07,332,38.08,316.38q0-12.92,8.57-19.78t21.62-6.87q14,0,23.8,8l-7.2,12.38a21.32,21.32,0,0,0-7.28-4.7,25.63,25.63,0,0,0-10-2c-4.54,0-8.09,1-10.68,3.06S53,311.58,53,315.57a12.46,12.46,0,0,0,2.44,7.55,24,24,0,0,0,6.19,5.78c2.5,1.63,5.87,3.62,10.14,6q6.12,3.4,9.38,5.37a35.1,35.1,0,0,1,6.12,4.7,27.83,27.83,0,0,1,6.39,8.43,23.55,23.55,0,0,1,2.45,10.74A27.88,27.88,0,0,1,92,379.62a25.89,25.89,0,0,1-11.43,9.66,39.91,39.91,0,0,1-16.53,3.27,48,48,0,0,1-16.18-2.86"/><path class="cls-1" d="M198.38,374.39a31.74,31.74,0,0,0,12.31-12.92q4.56-8.5,4.56-20.33t-4.56-20.47a31.44,31.44,0,0,0-12.24-12.86,34.4,34.4,0,0,0-17.2-4.35A34.81,34.81,0,0,0,164,307.81a30.88,30.88,0,0,0-12.24,12.86q-4.48,8.5-4.49,20.47t4.63,20.33a32,32,0,0,0,12.44,12.92,35,35,0,0,0,34.07,0m-42.23,11.83a47.11,47.11,0,0,1-18.29-18q-6.8-11.7-6.8-27.2t6.8-27.27a46.82,46.82,0,0,1,18.29-17.88,53.43,53.43,0,0,1,50.19,0,46.82,46.82,0,0,1,18.29,17.88q6.8,11.64,6.8,27.27t-6.8,27.2a47.11,47.11,0,0,1-18.29,18,52.91,52.91,0,0,1-50.19,0"/><path class="cls-1" d="M299.13,333.65l6-13.59h.27l5.85,13.73L322,357.86H288.25Zm5.31-42.56-47.87,100.1h17l8.57-19.59H328l8.57,19.59h17.54l-48.15-100.1Z"/><polygon class="cls-1" points="391.78 291.22 391.78 391.19 406.88 391.19 406.88 346.03 431.63 346.03 431.63 332.7 406.88 332.7 406.88 304.41 438.7 304.41 438.7 291.22 391.78 291.22"/><polygon class="cls-1" points="482.91 291.22 482.91 391.19 531.19 391.19 531.19 377.72 498.01 377.72 498.01 345.76 521.13 345.76 521.13 332.16 498.01 332.16 498.01 304.55 526.71 304.55 526.71 291.22 482.91 291.22"/><polygon class="cls-1" points="575.41 291.22 575.41 391.19 623.69 391.19 623.69 377.72 590.51 377.72 590.51 345.76 613.63 345.76 613.63 332.16 590.51 332.16 590.51 304.55 619.2 304.55 619.2 291.22 575.41 291.22"/><path class="cls-1" d="M381.65,171.62l-45.23-27.43,84.8-51.42L330,37.45,238.78,92.77l84.8,51.42-84.8,51.42L330,250.93l91.22-55.32-39.57-24ZM330,195.15l-38.8-23.53L330,148.08l38.81,23.54Zm-38.8-78.39L330,93.23l38.81,23.53L330,140.29Zm84-3.89-41.9-25.41V47.26l75.05,45.51ZM326.67,47.26v40.2l-41.9,25.41-33.15-20.1Zm-41.9,128.25,41.9,25.41v40.2l-75.05-45.51Zm123.61,20.1-75.05,45.51v-40.2l41.9-25.41Z"/></svg>