<?xml version="1.0" encoding="utf-8"?>
<!-- Generator: Adobe Illustrator 25.0.0, SVG Export Plug-In . SVG Version: 6.00 Build 0)  -->
<svg version="1.1" xmlns="http://www.w3.org/2000/svg" xmlns:xlink="http://www.w3.org/1999/xlink" x="0px" y="0px"
	 viewBox="0 0 361 361" style="enable-background:new 0 0 361 361;" xml:space="preserve">
<style type="text/css">
	.st0{fill:none;stroke:#0C322C;stroke-width:17;stroke-miterlimit:10;}
	.st1{fill:none;stroke:#FE7C3F;stroke-width:17;stroke-miterlimit:10;}
</style>
<g id="Layer_1">
	<path class="st0" d="M81.5,243.5h-45v-54c0-24.85,20.15-45,45-45h9v-27c0-24.85,20.15-45,45-45h99c24.85,0,45,20.15,45,45v45h0
		c24.85,0,45,20.15,45,45v36h-45"/>
	<rect x="108.5" y="243.5" class="st1" width="54" height="54"/>
	<path class="st1" d="M153.5,216.5c0-9.94-8.06-18-18-18h0c-9.94,0-18,8.06-18,18v27h36"/>
	<rect x="198.5" y="243.5" class="st1" width="54" height="54"/>
	<path class="st1" d="M225.5,198.5L225.5,198.5c-9.94,0-18,8.06-18,18v27h36v-27C243.5,206.56,235.44,198.5,225.5,198.5z"/>
</g>
<g id="Outlines">
</g>
</svg>
